<?xml version="1.0" encoding="utf-8" standalone="no"?>
<!DOCTYPE svg PUBLIC "-//W3C//DTD SVG 1.1//EN"
  "http://www.w3.org/Graphics/SVG/1.1/DTD/svg11.dtd">
<!-- Created with matplotlib (https://matplotlib.org/) -->
<svg height="224.64pt" version="1.1" viewBox="0 0 1380.96 224.64" width="1380.96pt" xmlns="http://www.w3.org/2000/svg" xmlns:xlink="http://www.w3.org/1999/xlink">
 <metadata>
  <rdf:RDF xmlns:cc="http://creativecommons.org/ns#" xmlns:dc="http://purl.org/dc/elements/1.1/" xmlns:rdf="http://www.w3.org/1999/02/22-rdf-syntax-ns#">
   <cc:Work>
    <dc:type rdf:resource="http://purl.org/dc/dcmitype/StillImage"/>
    <dc:date>2021-04-02T16:14:46.506531</dc:date>
    <dc:format>image/svg+xml</dc:format>
    <dc:creator>
     <cc:Agent>
      <dc:title>Matplotlib v3.3.4, https://matplotlib.org/</dc:title>
     </cc:Agent>
    </dc:creator>
   </cc:Work>
  </rdf:RDF>
 </metadata>
 <defs>
  <style type="text/css">*{stroke-linecap:butt;stroke-linejoin:round;}</style>
 </defs>
 <g id="figure_1">
  <g id="patch_1">
   <path d="M 0 224.64 
L 1380.96 224.64 
L 1380.96 0 
L 0 0 
z
" style="fill:#ffffff;"/>
  </g>
  <g id="axes_1">
   <g id="patch_2">
    <path d="M 172.62 84.6144 
L 1242.864 84.6144 
L 1242.864 26.9568 
L 172.62 26.9568 
z
" style="fill:#ffffff;"/>
   </g>
   <g id="matplotlib.axis_1">
    <g id="xtick_1">
     <g id="line2d_1">
      <defs>
       <path d="M 0 0 
L 0 3.5 
" id="m73fb9f3ad2" style="stroke:#000000;stroke-width:0.8;"/>
      </defs>
      <g>
       <use style="stroke:#000000;stroke-width:0.8;" x="321.917361" xlink:href="#m73fb9f3ad2" y="84.6144"/>
      </g>
     </g>
    </g>
    <g id="xtick_2">
     <g id="line2d_2">
      <g>
       <use style="stroke:#000000;stroke-width:0.8;" x="489.667204" xlink:href="#m73fb9f3ad2" y="84.6144"/>
      </g>
     </g>
    </g>
    <g id="xtick_3">
     <g id="line2d_3">
      <g>
       <use style="stroke:#000000;stroke-width:0.8;" x="657.417047" xlink:href="#m73fb9f3ad2" y="84.6144"/>
      </g>
     </g>
    </g>
    <g id="xtick_4">
     <g id="line2d_4">
      <g>
       <use style="stroke:#000000;stroke-width:0.8;" x="825.16689" xlink:href="#m73fb9f3ad2" y="84.6144"/>
      </g>
     </g>
    </g>
    <g id="xtick_5">
     <g id="line2d_5">
      <g>
       <use style="stroke:#000000;stroke-width:0.8;" x="992.916734" xlink:href="#m73fb9f3ad2" y="84.6144"/>
      </g>
     </g>
    </g>
    <g id="xtick_6">
     <g id="line2d_6">
      <g>
       <use style="stroke:#000000;stroke-width:0.8;" x="1160.666577" xlink:href="#m73fb9f3ad2" y="84.6144"/>
      </g>
     </g>
    </g>
   </g>
   <g id="matplotlib.axis_2">
    <g id="ytick_1">
     <g id="line2d_7">
      <defs>
       <path d="M 0 0 
L -3.5 0 
" id="mda7529d924" style="stroke:#000000;stroke-width:0.8;"/>
      </defs>
      <g>
       <use style="stroke:#000000;stroke-width:0.8;" x="172.62" xlink:href="#mda7529d924" y="82.173933"/>
      </g>
     </g>
     <g id="text_1">
      <!-- $\mathdefault{0.0}$ -->
      <g transform="translate(152.889921 85.633182)scale(0.1 -0.1)">
       <defs>
        <path d="M 42 31.84375 
C 42 37.96875 41.90625 48.421875 37.703125 56.453125 
C 34 63.484375 28.09375 66 22.90625 66 
C 18.09375 66 12 63.78125 8.203125 56.5625 
C 4.203125 49.015625 3.796875 39.671875 3.796875 31.84375 
C 3.796875 26.109375 3.90625 17.375 7 9.734375 
C 11.296875 -0.609375 19 -2 22.90625 -2 
C 27.5 -2 34.5 -0.109375 38.59375 9.4375 
C 41.59375 16.375 42 24.5 42 31.84375 
z
M 22.90625 -0.40625 
C 16.5 -0.40625 12.703125 5.125 11.296875 12.75 
C 10.203125 18.6875 10.203125 27.328125 10.203125 32.953125 
C 10.203125 40.6875 10.203125 47.109375 11.5 53.234375 
C 13.40625 61.78125 19 64.390625 22.90625 64.390625 
C 27 64.390625 32.296875 61.671875 34.203125 53.4375 
C 35.5 47.71875 35.59375 40.984375 35.59375 32.953125 
C 35.59375 26.421875 35.59375 18.375 34.40625 12.453125 
C 32.296875 1.5 26.40625 -0.40625 22.90625 -0.40625 
z
" id="CMR17-48"/>
        <path d="M 18.40625 4.796875 
C 18.40625 7.6875 16 9.6875 13.59375 9.6875 
C 10.703125 9.6875 8.703125 7.296875 8.703125 4.890625 
C 8.703125 2 11.09375 0 13.5 0 
C 16.40625 0 18.40625 2.390625 18.40625 4.796875 
z
" id="CMMI12-58"/>
       </defs>
       <use transform="scale(0.996264)" xlink:href="#CMR17-48"/>
       <use transform="translate(45.690477 0)scale(0.996264)" xlink:href="#CMMI12-58"/>
       <use transform="translate(72.787654 0)scale(0.996264)" xlink:href="#CMR17-48"/>
      </g>
     </g>
    </g>
    <g id="ytick_2">
     <g id="line2d_8">
      <g>
       <use style="stroke:#000000;stroke-width:0.8;" x="172.62" xlink:href="#mda7529d924" y="33.21833"/>
      </g>
     </g>
     <g id="text_2">
      <!-- $\mathdefault{0.5}$ -->
      <g transform="translate(152.889921 36.677579)scale(0.1 -0.1)">
       <defs>
        <path d="M 11.40625 58.59375 
C 12.40625 58.1875 16.5 56.890625 20.703125 56.890625 
C 30 56.890625 35.09375 61.890625 38 64.6875 
C 38 65.484375 38 66 37.40625 66 
C 37.296875 66 37.09375 66 36.296875 65.59375 
C 32.796875 64.09375 28.703125 63 23.703125 63 
C 20.703125 63 16.203125 63.359375 11.296875 65.484375 
C 10.203125 66 10 66 9.90625 66 
C 9.40625 66 9.296875 65.890625 9.296875 63.90625 
L 9.296875 34.859375 
C 9.296875 33.015625 9.296875 32.5 10.296875 32.5 
C 10.796875 32.5 11 32.703125 11.5 33.421875 
C 14.703125 38.046875 19.09375 40 24.09375 40 
C 27.59375 40 35.09375 37.734375 35.09375 20.203125 
C 35.09375 16.984375 35.09375 11.1875 32.09375 6.59375 
C 29.59375 2.484375 25.703125 0.390625 21.40625 0.390625 
C 14.796875 0.390625 8.09375 4.984375 6.296875 12.6875 
C 6.703125 12.59375 7.5 12.390625 7.90625 12.390625 
C 9.203125 12.390625 11.703125 13.09375 11.703125 16.1875 
C 11.703125 18.890625 9.796875 20 7.90625 20 
C 5.59375 20 4.09375 18.59375 4.09375 15.796875 
C 4.09375 7.09375 11 -2 21.59375 -2 
C 31.90625 -2 41.703125 6.890625 41.703125 19.796875 
C 41.703125 32.09375 33.90625 41.59375 24.203125 41.59375 
C 19.09375 41.59375 14.796875 39.6875 11.40625 36 
z
" id="CMR17-53"/>
       </defs>
       <use transform="scale(0.996264)" xlink:href="#CMR17-48"/>
       <use transform="translate(45.690477 0)scale(0.996264)" xlink:href="#CMMI12-58"/>
       <use transform="translate(72.787654 0)scale(0.996264)" xlink:href="#CMR17-53"/>
      </g>
     </g>
    </g>
    <g id="text_3">
     <!-- error in x [m] -->
     <g transform="translate(146.399261 85.023234)rotate(-90)scale(0.1 -0.1)">
      <defs>
       <path d="M 38.09375 23.484375 
C 38.5 23.890625 38.5 24.09375 38.5 25.09375 
C 38.5 35.171875 33.09375 44 21.703125 44 
C 11.09375 44 2.703125 33.984375 2.703125 21.78125 
C 2.703125 8.65625 12.203125 -1 22.796875 -1 
C 34 -1 38.40625 9.671875 38.40625 11.796875 
C 38.40625 12.5 37.796875 12.5 37.59375 12.5 
C 36.90625 12.5 36.796875 12.296875 36.40625 11.078125 
C 34.203125 4.21875 28.703125 0.796875 23.5 0.796875 
C 19.203125 0.796875 14.90625 3.21875 12.203125 7.65625 
C 9.09375 12.796875 9.09375 18.75 9.09375 23.484375 
z
M 9.203125 25 
C 9.90625 39.234375 17.59375 42.390625 21.59375 42.390625 
C 28.40625 42.390625 33 36.0625 33.09375 25 
z
" id="CMR17-101"/>
       <path d="M 15 23.703125 
C 15 33.34375 19.09375 42.390625 26.59375 42.390625 
C 27.296875 42.390625 28 42.296875 28.703125 41.984375 
C 28.703125 41.984375 26.5 41.28125 26.5 38.671875 
C 26.5 36.265625 28.40625 35.265625 29.90625 35.265625 
C 31.09375 35.265625 33.296875 35.96875 33.296875 38.78125 
C 33.296875 41.984375 30.09375 44 26.703125 44 
C 19.09375 44 15.796875 36.5625 14.796875 33.046875 
L 14.703125 33.046875 
L 14.703125 44 
L 3.09375 42.890625 
L 3.09375 40.28125 
C 9 40.28125 9.90625 39.6875 9.90625 34.859375 
L 9.90625 6.921875 
C 9.90625 3.09375 9.5 2.59375 3.09375 2.59375 
L 3.09375 0 
C 5.5 0.1875 10.09375 0.1875 12.703125 0.1875 
C 15.59375 0.1875 20.703125 0.1875 23.40625 0 
L 23.40625 2.59375 
C 16.203125 2.59375 15 2.59375 15 7.109375 
z
" id="CMR17-114"/>
       <path d="M 43.09375 21.1875 
C 43.09375 34 33.796875 44 22.90625 44 
C 12 44 2.703125 34 2.703125 21.1875 
C 2.703125 8.59375 12 -1 22.90625 -1 
C 33.796875 -1 43.09375 8.59375 43.09375 21.1875 
z
M 22.90625 0.796875 
C 18.203125 0.796875 14.203125 3.59375 11.90625 7.5 
C 9.40625 12 9.09375 17.59375 9.09375 22 
C 9.09375 26.1875 9.296875 31.390625 11.90625 35.890625 
C 13.90625 39.1875 17.796875 42.390625 22.90625 42.390625 
C 27.40625 42.390625 31.203125 39.890625 33.59375 36.390625 
C 36.703125 31.6875 36.703125 25.09375 36.703125 22 
C 36.703125 18.09375 36.5 12.09375 33.796875 7.296875 
C 31 2.6875 26.703125 0.796875 22.90625 0.796875 
z
" id="CMR17-111"/>
       <path d="M 15.5 61.890625 
C 15.5 64.09375 13.703125 66 11.40625 66 
C 9.203125 66 7.296875 64.1875 7.296875 61.890625 
C 7.296875 59.6875 9.09375 57.796875 11.40625 57.796875 
C 13.59375 57.796875 15.5 59.59375 15.5 61.890625 
z
M 3.796875 42.890625 
L 3.796875 40.296875 
C 9.40625 40.296875 10.203125 39.6875 10.203125 34.859375 
L 10.203125 6.921875 
C 10.203125 3.09375 9.796875 2.59375 3.40625 2.59375 
L 3.40625 0 
C 5.796875 0.1875 10.09375 0.1875 12.59375 0.1875 
C 15 0.1875 19.09375 0.1875 21.40625 0 
L 21.40625 2.59375 
C 15.5 2.59375 15.296875 3.203125 15.296875 6.8125 
L 15.296875 44 
z
" id="CMR17-105"/>
       <path d="M 41.5 30.53125 
C 41.5 35.65625 40.5 44 28.703125 44 
C 20.796875 44 16.703125 37.875 15.203125 33.84375 
L 15.09375 33.84375 
L 15.09375 44 
L 3.296875 42.890625 
L 3.296875 40.28125 
C 9.203125 40.28125 10.09375 39.6875 10.09375 34.859375 
L 10.09375 6.921875 
C 10.09375 3.09375 9.703125 2.59375 3.296875 2.59375 
L 3.296875 0 
C 5.703125 0.1875 10.09375 0.1875 12.703125 0.1875 
C 15.296875 0.1875 19.796875 0.1875 22.203125 0 
L 22.203125 2.59375 
C 15.796875 2.59375 15.40625 3 15.40625 6.921875 
L 15.40625 26.21875 
C 15.40625 35.453125 21 42.390625 28 42.390625 
C 35.40625 42.390625 36.203125 35.765625 36.203125 30.9375 
L 36.203125 6.921875 
C 36.203125 3.09375 35.796875 2.59375 29.40625 2.59375 
L 29.40625 0 
C 31.796875 0.1875 36.203125 0.1875 38.796875 0.1875 
C 41.40625 0.1875 45.90625 0.1875 48.296875 0 
L 48.296875 2.59375 
C 41.90625 2.59375 41.5 3 41.5 6.921875 
z
" id="CMR17-110"/>
       <path d="M 26 23.296875 
C 29 27.1875 32.40625 31.59375 35.203125 34.890625 
C 38.5 38.6875 42.296875 40.296875 46.703125 40.390625 
L 46.703125 43 
C 45 42.890625 41.5 42.796875 39.703125 42.796875 
C 37 42.796875 33.90625 42.796875 31.59375 43 
L 31.59375 40.390625 
C 33 40.1875 33.796875 39.1875 33.796875 37.796875 
C 33.796875 36 32.796875 34.890625 32.296875 34.1875 
L 24.90625 24.796875 
L 16.09375 36.296875 
C 15.203125 37.390625 15.203125 37.59375 15.203125 38.09375 
C 15.203125 39.296875 16.203125 40.296875 17.90625 40.390625 
L 17.90625 43 
C 15.5 42.796875 11.203125 42.796875 8.703125 42.796875 
C 6 42.796875 2.796875 42.796875 0.59375 43 
L 0.59375 40.390625 
C 6 40.390625 7.203125 40 9.59375 37 
L 21.09375 22.09375 
C 21.296875 21.890625 21.796875 21.296875 21.796875 21 
C 21.796875 20.59375 13.09375 9.890625 12 8.5 
C 7.5 3.09375 2.796875 2.6875 0.09375 2.59375 
L 0.09375 0 
C 1.796875 0.09375 5.296875 0.1875 7.09375 0.1875 
C 9.09375 0.1875 13.5 0.1875 15.296875 0 
L 15.296875 2.59375 
C 14.703125 2.6875 13.09375 2.890625 13.09375 5.1875 
C 13.09375 7 13.90625 8.09375 14.796875 9.296875 
L 23.09375 19.5 
L 31.796875 8.1875 
C 32.59375 7.09375 33.796875 5.59375 33.796875 4.890625 
C 33.796875 3.5 32.59375 2.6875 31 2.59375 
L 31 0 
C 33.40625 0.1875 37.703125 0.1875 40.203125 0.1875 
C 42.90625 0.1875 46.09375 0.1875 48.296875 0 
L 48.296875 2.59375 
C 43.296875 2.59375 41.796875 2.796875 39.40625 5.890625 
z
" id="CMR17-120"/>
       <path d="M 23.5 -25 
L 23.5 -21.5 
L 14.09375 -21.5 
L 14.09375 71.484375 
L 23.5 71.484375 
L 23.5 75 
L 10.59375 75 
L 10.59375 -25 
z
" id="CMR17-91"/>
       <path d="M 67.59375 30.53125 
C 67.59375 35.5625 66.703125 44 54.796875 44 
C 48 44 43.296875 39.375 41.5 33.953125 
L 41.40625 33.953125 
C 40.203125 42.1875 34.296875 44 28.703125 44 
C 20.796875 44 16.703125 37.875 15.203125 33.84375 
L 15.09375 33.84375 
L 15.09375 44 
L 3.296875 42.890625 
L 3.296875 40.28125 
C 9.203125 40.28125 10.09375 39.6875 10.09375 34.859375 
L 10.09375 6.921875 
C 10.09375 3.09375 9.703125 2.59375 3.296875 2.59375 
L 3.296875 0 
C 5.703125 0.1875 10.09375 0.1875 12.703125 0.1875 
C 15.296875 0.1875 19.796875 0.1875 22.203125 0 
L 22.203125 2.59375 
C 15.796875 2.59375 15.40625 3 15.40625 6.921875 
L 15.40625 26.21875 
C 15.40625 35.453125 21 42.390625 28 42.390625 
C 35.40625 42.390625 36.203125 35.765625 36.203125 30.9375 
L 36.203125 6.921875 
C 36.203125 3.09375 35.796875 2.59375 29.40625 2.59375 
L 29.40625 0 
C 31.796875 0.1875 36.203125 0.1875 38.796875 0.1875 
C 41.40625 0.1875 45.90625 0.1875 48.296875 0 
L 48.296875 2.59375 
C 41.90625 2.59375 41.5 3 41.5 6.921875 
L 41.5 26.21875 
C 41.5 35.453125 47.09375 42.390625 54.09375 42.390625 
C 61.5 42.390625 62.296875 35.765625 62.296875 30.9375 
L 62.296875 6.921875 
C 62.296875 3.09375 61.90625 2.59375 55.5 2.59375 
L 55.5 0 
C 57.90625 0.1875 62.296875 0.1875 64.90625 0.1875 
C 67.5 0.1875 72 0.1875 74.40625 0 
L 74.40625 2.59375 
C 68 2.59375 67.59375 3 67.59375 6.921875 
z
" id="CMR17-109"/>
       <path d="M 14.296875 75 
L 1.40625 75 
L 1.40625 71.484375 
L 10.796875 71.484375 
L 10.796875 -21.5 
L 1.40625 -21.5 
L 1.40625 -25 
L 14.296875 -25 
z
" id="CMR17-93"/>
      </defs>
      <use transform="scale(0.996264)" xlink:href="#CMR17-101"/>
      <use transform="translate(40.48566 0)scale(0.996264)" xlink:href="#CMR17-114"/>
      <use transform="translate(75.766428 0)scale(0.996264)" xlink:href="#CMR17-114"/>
      <use transform="translate(111.047196 0)scale(0.996264)" xlink:href="#CMR17-111"/>
      <use transform="translate(156.737673 0)scale(0.996264)" xlink:href="#CMR17-114"/>
      <use transform="translate(222.094407 0)scale(0.996264)" xlink:href="#CMR17-105"/>
      <use transform="translate(246.965466 0)scale(0.996264)" xlink:href="#CMR17-110"/>
      <use transform="translate(327.936802 0)scale(0.996264)" xlink:href="#CMR17-120"/>
      <use transform="translate(406.305684 0)scale(0.996264)" xlink:href="#CMR17-91"/>
      <use transform="translate(431.176743 0)scale(0.996264)" xlink:href="#CMR17-109"/>
      <use transform="translate(508.096332 0)scale(0.996264)" xlink:href="#CMR17-93"/>
     </g>
    </g>
   </g>
   <g id="line2d_9">
    <path clip-path="url(#pfc12d62c63)" d="M 221.267455 81.986172 
L 254.817423 77.726375 
L 288.367392 80.221534 
L 321.917361 78.433157 
L 355.467329 79.451737 
L 389.017298 81.937781 
L 422.567266 77.539414 
L 456.117235 79.758052 
L 489.667204 78.537334 
L 523.217172 79.899495 
L 556.767141 77.921238 
L 590.31711 73.099992 
L 623.867078 73.970756 
L 657.417047 75.323409 
L 690.967016 74.991049 
L 724.516984 68.746782 
L 758.066953 60.877169 
L 791.616922 62.213069 
L 825.16689 58.998644 
L 858.716859 62.508859 
L 892.266828 61.141529 
L 925.816796 59.820707 
L 959.366765 54.794533 
L 992.916734 53.790747 
L 1026.466702 48.779946 
L 1060.016671 29.5776 
L 1093.566639 66.711012 
L 1127.116608 65.054452 
L 1160.666577 66.099067 
L 1194.216545 68.467735 
" style="fill:none;stroke:#1f77b4;stroke-linecap:square;stroke-width:1.5;"/>
   </g>
   <g id="line2d_10">
    <path clip-path="url(#pfc12d62c63)" d="M 221.267455 81.9936 
L 254.817423 77.720422 
L 288.367392 80.21893 
L 321.917361 78.451241 
L 355.467329 79.527207 
L 389.017298 81.808857 
L 422.567266 77.523953 
L 456.117235 79.731841 
L 489.667204 78.519485 
L 523.217172 79.879364 
L 556.767141 77.981728 
L 590.31711 73.163292 
L 623.867078 74.036347 
L 657.417047 75.405968 
L 690.967016 75.052596 
L 724.516984 68.833825 
L 758.066953 60.982521 
L 791.616922 62.334773 
L 825.16689 59.15119 
L 858.716859 62.630954 
L 892.266828 61.250406 
L 925.816796 59.96258 
L 959.366765 54.93484 
L 992.916734 54.000277 
L 1026.466702 49.164932 
L 1060.016671 30.063435 
L 1093.566639 66.870607 
L 1127.116608 65.208075 
L 1160.666577 66.249948 
L 1194.216545 68.617049 
" style="fill:none;stroke:#ff7f0e;stroke-linecap:square;stroke-width:1.5;"/>
   </g>
   <g id="patch_3">
    <path d="M 172.62 84.6144 
L 172.62 26.9568 
" style="fill:none;stroke:#000000;stroke-linecap:square;stroke-linejoin:miter;stroke-width:0.8;"/>
   </g>
   <g id="patch_4">
    <path d="M 1242.864 84.6144 
L 1242.864 26.9568 
" style="fill:none;stroke:#000000;stroke-linecap:square;stroke-linejoin:miter;stroke-width:0.8;"/>
   </g>
   <g id="patch_5">
    <path d="M 172.62 84.6144 
L 1242.864 84.6144 
" style="fill:none;stroke:#000000;stroke-linecap:square;stroke-linejoin:miter;stroke-width:0.8;"/>
   </g>
   <g id="patch_6">
    <path d="M 172.62 26.9568 
L 1242.864 26.9568 
" style="fill:none;stroke:#000000;stroke-linecap:square;stroke-linejoin:miter;stroke-width:0.8;"/>
   </g>
   <g id="legend_1">
    <g id="patch_7">
     <path d="M 1129.614527 64.170541 
L 1235.864 64.170541 
Q 1237.864 64.170541 1237.864 62.170541 
L 1237.864 33.9568 
Q 1237.864 31.9568 1235.864 31.9568 
L 1129.614527 31.9568 
Q 1127.614527 31.9568 1127.614527 33.9568 
L 1127.614527 62.170541 
Q 1127.614527 64.170541 1129.614527 64.170541 
z
" style="fill:#ffffff;opacity:0.8;stroke:#cccccc;stroke-linejoin:miter;"/>
    </g>
    <g id="line2d_11">
     <path d="M 1131.614527 40.055238 
L 1151.614527 40.055238 
" style="fill:none;stroke:#1f77b4;stroke-linecap:square;stroke-width:1.5;"/>
    </g>
    <g id="line2d_12"/>
    <g id="text_4">
     <!-- pyramid size = 4 -->
     <g transform="translate(1159.614527 43.555238)scale(0.1 -0.1)">
      <defs>
       <path d="M 22 -17.40625 
C 15.59375 -17.40625 15.203125 -17 15.203125 -13.03125 
L 15.203125 5.9375 
C 18.09375 1.703125 22.296875 -1 27.59375 -1 
C 37.59375 -1 47.703125 7.859375 47.703125 21.59375 
C 47.703125 34.3125 39 44 28.703125 44 
C 22.703125 44 17.796875 40.671875 15 36.640625 
L 15 44 
L 3.09375 42.890625 
L 3.09375 40.265625 
C 9 40.265625 9.90625 39.671875 9.90625 34.8125 
L 9.90625 -13.03125 
C 9.90625 -16.890625 9.5 -17.40625 3.09375 -17.40625 
L 3.09375 -20 
C 5.5 -19.8125 9.90625 -19.8125 12.5 -19.8125 
C 15.09375 -19.8125 19.59375 -19.8125 22 -20 
z
M 15.203125 31.484375 
C 15.203125 32.90625 15.203125 35.015625 19.09375 38.765625 
C 19.59375 39.15625 23 42.1875 28 42.1875 
C 35.296875 42.1875 41.296875 33 41.296875 21.5 
C 41.296875 9.984375 34.90625 0.59375 27 0.59375 
C 23.40625 0.59375 19.5 2.3125 16.5 7.046875 
C 15.203125 9.28125 15.203125 9.875 15.203125 11.5 
z
" id="CMR17-112"/>
       <path d="M 39 34.109375 
C 41.5 40.296875 46 40.390625 47.40625 40.390625 
L 47.40625 43 
C 45.5 42.890625 43 42.796875 41.09375 42.796875 
C 39 42.796875 35.703125 42.796875 33.703125 43 
L 33.703125 40.390625 
C 37.5 40.09375 37.59375 37.25 37.59375 36.4375 
C 37.59375 35.4375 37.40625 34.921875 36.90625 33.71875 
L 26 6.390625 
L 14.09375 35.9375 
C 13.59375 37.15625 13.59375 37.859375 13.59375 37.96875 
C 13.59375 40.1875 15.90625 40.390625 18.296875 40.390625 
L 18.296875 43 
C 15.90625 42.796875 11.59375 42.796875 9.09375 42.796875 
C 6.40625 42.796875 3.203125 42.796875 1 43 
L 1 40.390625 
C 6.40625 40.390625 7 39.890625 8.296875 36.640625 
L 23.203125 -0.484375 
C 18.703125 -12.421875 16.09375 -19.40625 9.796875 -19.40625 
C 8.703125 -19.40625 6.203125 -19.109375 4.40625 -17.28125 
C 6.703125 -17.078125 7.703125 -15.65625 7.703125 -13.9375 
C 7.703125 -12.21875 6.5 -10.703125 4.5 -10.703125 
C 2.296875 -10.703125 1.203125 -12.21875 1.203125 -14.046875 
C 1.203125 -18.09375 5.296875 -21 9.796875 -21 
C 15.59375 -21 19.203125 -15.359375 21.203125 -10.296875 
z
" id="CMR17-121"/>
       <path d="M 36 25.875 
C 36 32 36 35.546875 31.796875 39.59375 
C 28.09375 42.984375 23.796875 44 20.40625 44 
C 12.5 44 6.796875 37.625 6.796875 30.890625 
C 6.796875 27.1875 9.796875 27 10.40625 27 
C 11.703125 27 14 27.796875 14 30.59375 
C 14 33.09375 12.09375 34.1875 10.40625 34.1875 
C 10 34.1875 9.5 34.09375 9.203125 34 
C 11.296875 40.53125 16.703125 42.390625 20.203125 42.390625 
C 25.203125 42.390625 30.703125 37.828125 30.703125 29.296875 
L 30.703125 25.5 
C 24.796875 25.296875 17.703125 24.5 12.09375 21.453125 
C 5.796875 17.921875 4 12.84375 4 9 
C 4 1.203125 13 -1 18.296875 -1 
C 23.796875 -1 28.90625 2.109375 31.09375 7.890625 
C 31.296875 3.421875 34.09375 -0.609375 38.5 -0.609375 
C 40.59375 -0.609375 45.90625 0.796875 45.90625 8.796875 
L 45.90625 14.46875 
L 44.09375 14.46875 
L 44.09375 8.703125 
C 44.09375 2.515625 41.40625 1.703125 40.09375 1.703125 
C 36 1.703125 36 6.96875 36 11.4375 
z
M 30.703125 13.859375 
C 30.703125 5.046875 24.5 0.59375 19 0.59375 
C 14 0.59375 10.09375 4.34375 10.09375 9 
C 10.09375 12.046875 11.40625 17.40625 17.203125 20.65625 
C 22 23.390625 27.5 23.796875 30.703125 24 
z
" id="CMR17-97"/>
       <path d="M 29.203125 67.890625 
L 29.203125 65.296875 
C 35.09375 65.296875 36 64.703125 36 60.046875 
L 36 37.046875 
C 35.59375 37.546875 31.5 44 23.40625 44 
C 13.203125 44 3.296875 34.8125 3.296875 21.5 
C 3.296875 8.265625 12.59375 -1 22.40625 -1 
C 30.90625 -1 35.296875 5.640625 35.796875 6.34375 
L 35.796875 -1 
L 47.90625 -0.203125 
L 47.90625 2.40625 
C 42 2.40625 41.09375 3.015625 41.09375 7.859375 
L 41.09375 69 
z
M 35.796875 11.90625 
C 35.796875 8.875 34 6.140625 31.703125 4.125 
C 28.296875 1.09375 24.90625 0.59375 23 0.59375 
C 20.09375 0.59375 9.703125 2.109375 9.703125 21.390625 
C 9.703125 41.1875 21.296875 42.390625 23.90625 42.390625 
C 28.5 42.390625 32.203125 39.765625 34.5 36.140625 
C 35.796875 34.015625 35.796875 33.703125 35.796875 31.890625 
z
" id="CMR17-100"/>
       <path d="M 30.90625 42 
C 30.90625 43.796875 30.796875 43.890625 30.203125 43.890625 
C 29.796875 43.890625 29.703125 43.796875 28.5 42.296875 
C 28.203125 41.890625 27.296875 40.890625 27 40.5 
C 23.796875 43.890625 19.296875 44 17.59375 44 
C 6.5 44 2.5 38.1875 2.5 32.390625 
C 2.5 23.390625 12.703125 21.296875 15.59375 20.6875 
C 21.90625 19.390625 24.09375 19 26.203125 17.1875 
C 27.5 16 29.703125 13.796875 29.703125 10.1875 
C 29.703125 6 27.296875 0.59375 18.09375 0.59375 
C 9.40625 0.59375 6.296875 7.1875 4.5 16 
C 4.203125 17.390625 4.203125 17.5 3.40625 17.5 
C 2.59375 17.5 2.5 17.390625 2.5 15.390625 
L 2.5 1 
C 2.5 -0.8125 2.59375 -0.90625 3.203125 -0.90625 
C 3.703125 -0.90625 3.796875 -0.8125 4.296875 0 
C 4.90625 0.890625 6.40625 3.296875 7 4.296875 
C 9 1.59375 12.5 -1 18.09375 -1 
C 28 -1 33.296875 4.390625 33.296875 12.1875 
C 33.296875 17.296875 30.59375 20 29.296875 21.1875 
C 26.296875 24.296875 22.796875 25 18.59375 25.796875 
C 13.09375 27 6.09375 28.390625 6.09375 34.5 
C 6.09375 37.09375 7.5 42.59375 17.59375 42.59375 
C 28.296875 42.59375 28.90625 32.59375 29.09375 29.390625 
C 29.203125 28.890625 29.703125 28.796875 30 28.796875 
C 30.90625 28.796875 30.90625 29.09375 30.90625 30.796875 
z
" id="CMR17-115"/>
       <path d="M 36.09375 40.6875 
C 36.90625 41.6875 36.90625 41.890625 36.90625 42.09375 
C 36.90625 43 36.5 43 34.703125 43 
L 4.296875 43 
L 3.296875 27.5 
L 5.09375 27.5 
C 5.796875 37.1875 6.90625 41.390625 18.40625 41.390625 
L 30.59375 41.390625 
L 2 1.5 
C 2 0.09375 2.09375 0 4.203125 0 
L 35.796875 0 
L 37.203125 18 
L 35.40625 18 
C 34.59375 6.890625 33.296875 1.796875 21.09375 1.796875 
L 8.296875 1.796875 
z
" id="CMR17-122"/>
       <path d="M 64.296875 32 
C 65.796875 32 67.296875 32 67.296875 33.6875 
C 67.296875 35.5 65.59375 35.5 63.90625 35.5 
L 8 35.5 
C 6.296875 35.5 4.59375 35.5 4.59375 33.6875 
C 4.59375 32 6.09375 32 7.59375 32 
z
M 63.90625 14.484375 
C 65.59375 14.484375 67.296875 14.484375 67.296875 16.296875 
C 67.296875 18 65.796875 18 64.296875 18 
L 7.59375 18 
C 6.09375 18 4.59375 18 4.59375 16.296875 
C 4.59375 14.484375 6.296875 14.484375 8 14.484375 
z
" id="CMR17-61"/>
       <path d="M 33.59375 64.796875 
C 33.59375 66.890625 33.5 67 31.703125 67 
L 2 19.59375 
L 2 17 
L 27.796875 17 
L 27.796875 7.1875 
C 27.796875 3.59375 27.59375 2.59375 20.59375 2.59375 
L 18.703125 2.59375 
L 18.703125 0 
C 21.90625 0.1875 27.296875 0.1875 30.703125 0.1875 
C 34.09375 0.1875 39.5 0.1875 42.703125 0 
L 42.703125 2.59375 
L 40.796875 2.59375 
C 33.796875 2.59375 33.59375 3.59375 33.59375 7.1875 
L 33.59375 17 
L 43.796875 17 
L 43.796875 19.59375 
L 33.59375 19.59375 
z
M 28.09375 58.171875 
L 28.09375 19.59375 
L 4 19.59375 
z
" id="CMR17-52"/>
      </defs>
      <use transform="scale(0.996264)" xlink:href="#CMR17-112"/>
      <use transform="translate(48.292916 0)scale(0.996264)" xlink:href="#CMR17-121"/>
      <use transform="translate(96.585832 0)scale(0.996264)" xlink:href="#CMR17-114"/>
      <use transform="translate(131.866599 0)scale(0.996264)" xlink:href="#CMR17-97"/>
      <use transform="translate(177.557077 0)scale(0.996264)" xlink:href="#CMR17-109"/>
      <use transform="translate(254.476666 0)scale(0.996264)" xlink:href="#CMR17-105"/>
      <use transform="translate(279.347725 0)scale(0.996264)" xlink:href="#CMR17-100"/>
      <use transform="translate(360.319061 0)scale(0.996264)" xlink:href="#CMR17-115"/>
      <use transform="translate(396.120399 0)scale(0.996264)" xlink:href="#CMR17-105"/>
      <use transform="translate(420.991457 0)scale(0.996264)" xlink:href="#CMR17-122"/>
      <use transform="translate(461.477118 0)scale(0.996264)" xlink:href="#CMR17-101"/>
      <use transform="translate(532.038744 0)scale(0.996264)" xlink:href="#CMR17-61"/>
      <use transform="translate(633.829499 0)scale(0.996264)" xlink:href="#CMR17-52"/>
     </g>
    </g>
    <g id="line2d_13">
     <path d="M 1131.614527 54.733362 
L 1151.614527 54.733362 
" style="fill:none;stroke:#ff7f0e;stroke-linecap:square;stroke-width:1.5;"/>
    </g>
    <g id="line2d_14"/>
    <g id="text_5">
     <!-- pyramid size = 6 -->
     <g transform="translate(1159.614527 58.233362)scale(0.1 -0.1)">
      <defs>
       <path d="M 10.59375 34.34375 
C 10.59375 58 21.796875 63.6875 28.296875 63.6875 
C 30.40625 63.6875 35.5 63.265625 37.5 59.09375 
C 35.90625 59.09375 32.90625 59.09375 32.90625 55.59375 
C 32.90625 52.890625 35.09375 52 36.5 52 
C 37.40625 52 40.09375 52.390625 40.09375 55.796875 
C 40.09375 62.296875 35.09375 66 28.203125 66 
C 16.296875 66 3.796875 53.296875 3.796875 31.421875 
C 3.796875 4.015625 15.09375 -2 23.09375 -2 
C 32.796875 -2 42 6.734375 42 20.234375 
C 42 32.828125 33.90625 42 23.703125 42 
C 17.59375 42 13.09375 37.96875 10.59375 30.921875 
z
M 23.09375 0.390625 
C 10.796875 0.390625 10.796875 18.9375 10.796875 22.65625 
C 10.796875 29.90625 14.203125 40.390625 23.5 40.390625 
C 25.203125 40.390625 30.09375 40.390625 33.40625 33.4375 
C 35.203125 29.515625 35.203125 25.375 35.203125 20.34375 
C 35.203125 14.90625 35.203125 10.875 33.09375 6.84375 
C 30.90625 2.703125 27.703125 0.390625 23.09375 0.390625 
z
" id="CMR17-54"/>
      </defs>
      <use transform="scale(0.996264)" xlink:href="#CMR17-112"/>
      <use transform="translate(48.292916 0)scale(0.996264)" xlink:href="#CMR17-121"/>
      <use transform="translate(96.585832 0)scale(0.996264)" xlink:href="#CMR17-114"/>
      <use transform="translate(131.866599 0)scale(0.996264)" xlink:href="#CMR17-97"/>
      <use transform="translate(177.557077 0)scale(0.996264)" xlink:href="#CMR17-109"/>
      <use transform="translate(254.476666 0)scale(0.996264)" xlink:href="#CMR17-105"/>
      <use transform="translate(279.347725 0)scale(0.996264)" xlink:href="#CMR17-100"/>
      <use transform="translate(360.319061 0)scale(0.996264)" xlink:href="#CMR17-115"/>
      <use transform="translate(396.120399 0)scale(0.996264)" xlink:href="#CMR17-105"/>
      <use transform="translate(420.991457 0)scale(0.996264)" xlink:href="#CMR17-122"/>
      <use transform="translate(461.477118 0)scale(0.996264)" xlink:href="#CMR17-101"/>
      <use transform="translate(532.038744 0)scale(0.996264)" xlink:href="#CMR17-61"/>
      <use transform="translate(633.829499 0)scale(0.996264)" xlink:href="#CMR17-54"/>
     </g>
    </g>
   </g>
  </g>
  <g id="axes_2">
   <g id="patch_8">
    <path d="M 172.62 142.272 
L 1242.864 142.272 
L 1242.864 84.6144 
L 172.62 84.6144 
z
" style="fill:#ffffff;"/>
   </g>
   <g id="matplotlib.axis_3">
    <g id="xtick_7">
     <g id="line2d_15">
      <g>
       <use style="stroke:#000000;stroke-width:0.8;" x="321.917361" xlink:href="#m73fb9f3ad2" y="142.272"/>
      </g>
     </g>
    </g>
    <g id="xtick_8">
     <g id="line2d_16">
      <g>
       <use style="stroke:#000000;stroke-width:0.8;" x="489.667204" xlink:href="#m73fb9f3ad2" y="142.272"/>
      </g>
     </g>
    </g>
    <g id="xtick_9">
     <g id="line2d_17">
      <g>
       <use style="stroke:#000000;stroke-width:0.8;" x="657.417047" xlink:href="#m73fb9f3ad2" y="142.272"/>
      </g>
     </g>
    </g>
    <g id="xtick_10">
     <g id="line2d_18">
      <g>
       <use style="stroke:#000000;stroke-width:0.8;" x="825.16689" xlink:href="#m73fb9f3ad2" y="142.272"/>
      </g>
     </g>
    </g>
    <g id="xtick_11">
     <g id="line2d_19">
      <g>
       <use style="stroke:#000000;stroke-width:0.8;" x="992.916734" xlink:href="#m73fb9f3ad2" y="142.272"/>
      </g>
     </g>
    </g>
    <g id="xtick_12">
     <g id="line2d_20">
      <g>
       <use style="stroke:#000000;stroke-width:0.8;" x="1160.666577" xlink:href="#m73fb9f3ad2" y="142.272"/>
      </g>
     </g>
    </g>
   </g>
   <g id="matplotlib.axis_4">
    <g id="ytick_3">
     <g id="line2d_21">
      <g>
       <use style="stroke:#000000;stroke-width:0.8;" x="172.62" xlink:href="#mda7529d924" y="140.146533"/>
      </g>
     </g>
     <g id="text_6">
      <!-- $\mathdefault{0.0}$ -->
      <g transform="translate(152.889921 143.605782)scale(0.1 -0.1)">
       <use transform="scale(0.996264)" xlink:href="#CMR17-48"/>
       <use transform="translate(45.690477 0)scale(0.996264)" xlink:href="#CMMI12-58"/>
       <use transform="translate(72.787654 0)scale(0.996264)" xlink:href="#CMR17-48"/>
      </g>
     </g>
    </g>
    <g id="ytick_4">
     <g id="line2d_22">
      <g>
       <use style="stroke:#000000;stroke-width:0.8;" x="172.62" xlink:href="#mda7529d924" y="108.069533"/>
      </g>
     </g>
     <g id="text_7">
      <!-- $\mathdefault{0.2}$ -->
      <g transform="translate(152.889921 111.528782)scale(0.1 -0.1)">
       <defs>
        <path d="M 41.703125 15.46875 
L 39.90625 15.46875 
C 38.90625 8.390625 38.09375 7.1875 37.703125 6.59375 
C 37.203125 5.796875 30 5.796875 28.59375 5.796875 
L 9.40625 5.796875 
C 13 9.6875 20 16.765625 28.5 24.9375 
C 34.59375 30.71875 41.703125 37.5 41.703125 47.390625 
C 41.703125 59.1875 32.296875 66 21.796875 66 
C 10.796875 66 4.09375 56.296875 4.09375 47.296875 
C 4.09375 43.390625 7 42.890625 8.203125 42.890625 
C 9.203125 42.890625 12.203125 43.484375 12.203125 46.984375 
C 12.203125 50.09375 9.59375 51 8.203125 51 
C 7.59375 51 7 50.890625 6.59375 50.6875 
C 8.5 59.1875 14.296875 63.390625 20.40625 63.390625 
C 29.09375 63.390625 34.796875 56.5 34.796875 47.390625 
C 34.796875 38.703125 29.703125 31.21875 24 24.734375 
L 4.09375 2.296875 
L 4.09375 0 
L 39.296875 0 
z
" id="CMR17-50"/>
       </defs>
       <use transform="scale(0.996264)" xlink:href="#CMR17-48"/>
       <use transform="translate(45.690477 0)scale(0.996264)" xlink:href="#CMMI12-58"/>
       <use transform="translate(72.787654 0)scale(0.996264)" xlink:href="#CMR17-50"/>
      </g>
     </g>
    </g>
    <g id="text_8">
     <!-- error in y [m] -->
     <g transform="translate(146.399261 142.680834)rotate(-90)scale(0.1 -0.1)">
      <use transform="scale(0.996264)" xlink:href="#CMR17-101"/>
      <use transform="translate(40.48566 0)scale(0.996264)" xlink:href="#CMR17-114"/>
      <use transform="translate(75.766428 0)scale(0.996264)" xlink:href="#CMR17-114"/>
      <use transform="translate(111.047196 0)scale(0.996264)" xlink:href="#CMR17-111"/>
      <use transform="translate(156.737673 0)scale(0.996264)" xlink:href="#CMR17-114"/>
      <use transform="translate(222.094407 0)scale(0.996264)" xlink:href="#CMR17-105"/>
      <use transform="translate(246.965466 0)scale(0.996264)" xlink:href="#CMR17-110"/>
      <use transform="translate(327.936802 0)scale(0.996264)" xlink:href="#CMR17-121"/>
      <use transform="translate(406.305684 0)scale(0.996264)" xlink:href="#CMR17-91"/>
      <use transform="translate(431.176743 0)scale(0.996264)" xlink:href="#CMR17-109"/>
      <use transform="translate(508.096332 0)scale(0.996264)" xlink:href="#CMR17-93"/>
     </g>
    </g>
   </g>
   <g id="line2d_23">
    <path clip-path="url(#pf0d656cf8e)" d="M 221.267455 139.150978 
L 254.817423 137.815497 
L 288.367392 139.6512 
L 321.917361 135.308552 
L 355.467329 135.2571 
L 389.017298 137.034102 
L 422.567266 139.56507 
L 456.117235 137.759972 
L 489.667204 138.46132 
L 523.217172 136.58836 
L 556.767141 130.76215 
L 590.31711 125.42481 
L 623.867078 126.348515 
L 657.417047 126.327232 
L 690.967016 127.027313 
L 724.516984 122.592876 
L 758.066953 116.605062 
L 791.616922 120.626876 
L 825.16689 117.47499 
L 858.716859 122.021905 
L 892.266828 120.229603 
L 925.816796 119.130645 
L 959.366765 115.163682 
L 992.916734 113.803296 
L 1026.466702 107.235851 
L 1060.016671 87.2352 
L 1093.566639 120.62848 
L 1127.116608 122.394961 
L 1160.666577 124.064889 
L 1194.216545 126.265644 
" style="fill:none;stroke:#1f77b4;stroke-linecap:square;stroke-width:1.5;"/>
   </g>
   <g id="line2d_24">
    <path clip-path="url(#pf0d656cf8e)" d="M 221.267455 139.156675 
L 254.817423 137.811311 
L 288.367392 139.648746 
L 321.917361 135.323355 
L 355.467329 135.314662 
L 389.017298 137.131423 
L 422.567266 139.553936 
L 456.117235 137.779491 
L 489.667204 138.474952 
L 523.217172 136.60265 
L 556.767141 130.80292 
L 590.31711 125.470375 
L 623.867078 126.398026 
L 657.417047 126.392845 
L 690.967016 127.072445 
L 724.516984 122.653341 
L 758.066953 116.679641 
L 791.616922 120.717333 
L 825.16689 117.596402 
L 858.716859 122.110277 
L 892.266828 120.311399 
L 925.816796 119.240829 
L 959.366765 115.272744 
L 992.916734 113.96721 
L 1026.466702 107.544592 
L 1060.016671 87.631672 
L 1093.566639 120.753099 
L 1127.116608 122.506589 
L 1160.666577 124.177303 
L 1194.216545 126.372348 
" style="fill:none;stroke:#ff7f0e;stroke-linecap:square;stroke-width:1.5;"/>
   </g>
   <g id="patch_9">
    <path d="M 172.62 142.272 
L 172.62 84.6144 
" style="fill:none;stroke:#000000;stroke-linecap:square;stroke-linejoin:miter;stroke-width:0.8;"/>
   </g>
   <g id="patch_10">
    <path d="M 1242.864 142.272 
L 1242.864 84.6144 
" style="fill:none;stroke:#000000;stroke-linecap:square;stroke-linejoin:miter;stroke-width:0.8;"/>
   </g>
   <g id="patch_11">
    <path d="M 172.62 142.272 
L 1242.864 142.272 
" style="fill:none;stroke:#000000;stroke-linecap:square;stroke-linejoin:miter;stroke-width:0.8;"/>
   </g>
   <g id="patch_12">
    <path d="M 172.62 84.6144 
L 1242.864 84.6144 
" style="fill:none;stroke:#000000;stroke-linecap:square;stroke-linejoin:miter;stroke-width:0.8;"/>
   </g>
   <g id="legend_2">
    <g id="patch_13">
     <path d="M 1129.614527 121.828141 
L 1235.864 121.828141 
Q 1237.864 121.828141 1237.864 119.828141 
L 1237.864 91.6144 
Q 1237.864 89.6144 1235.864 89.6144 
L 1129.614527 89.6144 
Q 1127.614527 89.6144 1127.614527 91.6144 
L 1127.614527 119.828141 
Q 1127.614527 121.828141 1129.614527 121.828141 
z
" style="fill:#ffffff;opacity:0.8;stroke:#cccccc;stroke-linejoin:miter;"/>
    </g>
    <g id="line2d_25">
     <path d="M 1131.614527 97.712838 
L 1151.614527 97.712838 
" style="fill:none;stroke:#1f77b4;stroke-linecap:square;stroke-width:1.5;"/>
    </g>
    <g id="line2d_26"/>
    <g id="text_9">
     <!-- pyramid size = 4 -->
     <g transform="translate(1159.614527 101.212838)scale(0.1 -0.1)">
      <use transform="scale(0.996264)" xlink:href="#CMR17-112"/>
      <use transform="translate(48.292916 0)scale(0.996264)" xlink:href="#CMR17-121"/>
      <use transform="translate(96.585832 0)scale(0.996264)" xlink:href="#CMR17-114"/>
      <use transform="translate(131.866599 0)scale(0.996264)" xlink:href="#CMR17-97"/>
      <use transform="translate(177.557077 0)scale(0.996264)" xlink:href="#CMR17-109"/>
      <use transform="translate(254.476666 0)scale(0.996264)" xlink:href="#CMR17-105"/>
      <use transform="translate(279.347725 0)scale(0.996264)" xlink:href="#CMR17-100"/>
      <use transform="translate(360.319061 0)scale(0.996264)" xlink:href="#CMR17-115"/>
      <use transform="translate(396.120399 0)scale(0.996264)" xlink:href="#CMR17-105"/>
      <use transform="translate(420.991457 0)scale(0.996264)" xlink:href="#CMR17-122"/>
      <use transform="translate(461.477118 0)scale(0.996264)" xlink:href="#CMR17-101"/>
      <use transform="translate(532.038744 0)scale(0.996264)" xlink:href="#CMR17-61"/>
      <use transform="translate(633.829499 0)scale(0.996264)" xlink:href="#CMR17-52"/>
     </g>
    </g>
    <g id="line2d_27">
     <path d="M 1131.614527 112.390963 
L 1151.614527 112.390963 
" style="fill:none;stroke:#ff7f0e;stroke-linecap:square;stroke-width:1.5;"/>
    </g>
    <g id="line2d_28"/>
    <g id="text_10">
     <!-- pyramid size = 6 -->
     <g transform="translate(1159.614527 115.890963)scale(0.1 -0.1)">
      <use transform="scale(0.996264)" xlink:href="#CMR17-112"/>
      <use transform="translate(48.292916 0)scale(0.996264)" xlink:href="#CMR17-121"/>
      <use transform="translate(96.585832 0)scale(0.996264)" xlink:href="#CMR17-114"/>
      <use transform="translate(131.866599 0)scale(0.996264)" xlink:href="#CMR17-97"/>
      <use transform="translate(177.557077 0)scale(0.996264)" xlink:href="#CMR17-109"/>
      <use transform="translate(254.476666 0)scale(0.996264)" xlink:href="#CMR17-105"/>
      <use transform="translate(279.347725 0)scale(0.996264)" xlink:href="#CMR17-100"/>
      <use transform="translate(360.319061 0)scale(0.996264)" xlink:href="#CMR17-115"/>
      <use transform="translate(396.120399 0)scale(0.996264)" xlink:href="#CMR17-105"/>
      <use transform="translate(420.991457 0)scale(0.996264)" xlink:href="#CMR17-122"/>
      <use transform="translate(461.477118 0)scale(0.996264)" xlink:href="#CMR17-101"/>
      <use transform="translate(532.038744 0)scale(0.996264)" xlink:href="#CMR17-61"/>
      <use transform="translate(633.829499 0)scale(0.996264)" xlink:href="#CMR17-54"/>
     </g>
    </g>
   </g>
  </g>
  <g id="axes_3">
   <g id="patch_14">
    <path d="M 172.62 199.9296 
L 1242.864 199.9296 
L 1242.864 142.272 
L 172.62 142.272 
z
" style="fill:#ffffff;"/>
   </g>
   <g id="matplotlib.axis_5">
    <g id="xtick_13">
     <g id="line2d_29">
      <g>
       <use style="stroke:#000000;stroke-width:0.8;" x="321.917361" xlink:href="#m73fb9f3ad2" y="199.9296"/>
      </g>
     </g>
     <g id="text_11">
      <!-- $\mathdefault{5}$ -->
      <g transform="translate(319.426693 213.848098)scale(0.1 -0.1)">
       <use transform="scale(0.996264)" xlink:href="#CMR17-53"/>
      </g>
     </g>
    </g>
    <g id="xtick_14">
     <g id="line2d_30">
      <g>
       <use style="stroke:#000000;stroke-width:0.8;" x="489.667204" xlink:href="#m73fb9f3ad2" y="199.9296"/>
      </g>
     </g>
     <g id="text_12">
      <!-- $\mathdefault{10}$ -->
      <g transform="translate(484.685869 213.848098)scale(0.1 -0.1)">
       <defs>
        <path d="M 26.59375 63.796875 
C 26.59375 65.890625 26.5 66 25.09375 66 
C 21.203125 61.359375 15.296875 59.890625 9.703125 59.6875 
C 9.40625 59.6875 8.90625 59.6875 8.796875 59.5 
C 8.703125 59.296875 8.703125 59.09375 8.703125 57 
C 11.796875 57 17 57.59375 21 59.984375 
L 21 7.296875 
C 21 3.796875 20.796875 2.59375 12.203125 2.59375 
L 9.203125 2.59375 
L 9.203125 0 
C 14 0.09375 19 0.1875 23.796875 0.1875 
C 28.59375 0.1875 33.59375 0.09375 38.40625 0 
L 38.40625 2.59375 
L 35.40625 2.59375 
C 26.796875 2.59375 26.59375 3.6875 26.59375 7.296875 
z
" id="CMR17-49"/>
       </defs>
       <use transform="scale(0.996264)" xlink:href="#CMR17-49"/>
       <use transform="translate(45.690477 0)scale(0.996264)" xlink:href="#CMR17-48"/>
      </g>
     </g>
    </g>
    <g id="xtick_15">
     <g id="line2d_31">
      <g>
       <use style="stroke:#000000;stroke-width:0.8;" x="657.417047" xlink:href="#m73fb9f3ad2" y="199.9296"/>
      </g>
     </g>
     <g id="text_13">
      <!-- $\mathdefault{15}$ -->
      <g transform="translate(652.435712 213.848098)scale(0.1 -0.1)">
       <use transform="scale(0.996264)" xlink:href="#CMR17-49"/>
       <use transform="translate(45.690477 0)scale(0.996264)" xlink:href="#CMR17-53"/>
      </g>
     </g>
    </g>
    <g id="xtick_16">
     <g id="line2d_32">
      <g>
       <use style="stroke:#000000;stroke-width:0.8;" x="825.16689" xlink:href="#m73fb9f3ad2" y="199.9296"/>
      </g>
     </g>
     <g id="text_14">
      <!-- $\mathdefault{20}$ -->
      <g transform="translate(820.185555 213.848098)scale(0.1 -0.1)">
       <use transform="scale(0.996264)" xlink:href="#CMR17-50"/>
       <use transform="translate(45.690477 0)scale(0.996264)" xlink:href="#CMR17-48"/>
      </g>
     </g>
    </g>
    <g id="xtick_17">
     <g id="line2d_33">
      <g>
       <use style="stroke:#000000;stroke-width:0.8;" x="992.916734" xlink:href="#m73fb9f3ad2" y="199.9296"/>
      </g>
     </g>
     <g id="text_15">
      <!-- $\mathdefault{25}$ -->
      <g transform="translate(987.935398 213.848098)scale(0.1 -0.1)">
       <use transform="scale(0.996264)" xlink:href="#CMR17-50"/>
       <use transform="translate(45.690477 0)scale(0.996264)" xlink:href="#CMR17-53"/>
      </g>
     </g>
    </g>
    <g id="xtick_18">
     <g id="line2d_34">
      <g>
       <use style="stroke:#000000;stroke-width:0.8;" x="1160.666577" xlink:href="#m73fb9f3ad2" y="199.9296"/>
      </g>
     </g>
     <g id="text_16">
      <!-- $\mathdefault{30}$ -->
      <g transform="translate(1155.685242 213.848098)scale(0.1 -0.1)">
       <defs>
        <path d="M 22.09375 34 
C 31 34 34.90625 26.140625 34.90625 17.09375 
C 34.90625 5.03125 28.5 0.390625 22.703125 0.390625 
C 17.40625 0.390625 8.796875 3.015625 6.09375 10.796875 
C 6.59375 10.59375 7.09375 10.59375 7.59375 10.59375 
C 10 10.59375 11.796875 12.1875 11.796875 14.796875 
C 11.796875 17.6875 9.59375 19 7.59375 19 
C 5.90625 19 3.296875 18.1875 3.296875 14.484375 
C 3.296875 5.234375 12.296875 -2 22.90625 -2 
C 34 -2 42.5 6.75 42.5 16.984375 
C 42.5 26.84375 34.5 34 25 35.09375 
C 32.59375 36.671875 39.90625 43.375 39.90625 52.390625 
C 39.90625 60.25 32 66 23 66 
C 13.90625 66 5.90625 60.34375 5.90625 52.296875 
C 5.90625 48.796875 8.5 48.1875 9.796875 48.1875 
C 11.90625 48.1875 13.703125 49.484375 13.703125 52.09375 
C 13.703125 54.6875 11.90625 56 9.796875 56 
C 9.40625 56 8.90625 56 8.5 55.796875 
C 11.40625 62.484375 19.296875 63.6875 22.796875 63.6875 
C 26.296875 63.6875 32.90625 61.96875 32.90625 52.296875 
C 32.90625 49.484375 32.5 44.546875 29.09375 40.21875 
C 26.09375 36.390625 22.703125 36.1875 19.40625 35.890625 
C 18.90625 35.890625 16.59375 35.6875 16.203125 35.6875 
C 15.5 35.59375 15.09375 35.5 15.09375 34.796875 
C 15.09375 34.09375 15.203125 34 17.203125 34 
z
" id="CMR17-51"/>
       </defs>
       <use transform="scale(0.996264)" xlink:href="#CMR17-51"/>
       <use transform="translate(45.690477 0)scale(0.996264)" xlink:href="#CMR17-48"/>
      </g>
     </g>
    </g>
    <g id="text_17">
     <!-- current image index -->
     <g transform="translate(664.266065 226.703775)scale(0.1 -0.1)">
      <defs>
       <path d="M 34.90625 35 
C 33 35 30.203125 35 30.203125 31.484375 
C 30.203125 28.6875 32.5 27.890625 33.796875 27.890625 
C 34.5 27.890625 37.40625 28.1875 37.40625 31.6875 
C 37.40625 38.6875 30.59375 44 22.90625 44 
C 12.296875 44 3.296875 34.390625 3.296875 21.546875 
C 3.296875 8.140625 12.703125 -1 22.90625 -1 
C 35.296875 -1 38.40625 10.5625 38.40625 11.671875 
C 38.40625 12.078125 38.296875 12.375 37.59375 12.375 
C 36.90625 12.375 36.796875 12.28125 36.40625 10.96875 
C 33.796875 2.8125 28.09375 0.796875 23.796875 0.796875 
C 17.40625 0.796875 9.703125 6.734375 9.703125 21.640625 
C 9.703125 36.84375 17.09375 42.1875 23 42.1875 
C 26.90625 42.1875 32.703125 40.34375 34.90625 35 
z
" id="CMR17-99"/>
       <path d="M 29.40625 42.890625 
L 29.40625 40.296875 
C 35.296875 40.296875 36.203125 39.6875 36.203125 34.828125 
L 36.203125 16.453125 
C 36.203125 7.96875 31.703125 0.59375 24.296875 0.59375 
C 16.09375 0.59375 15.40625 5.546875 15.40625 10.796875 
L 15.40625 44 
L 3.296875 42.890625 
L 3.296875 40.296875 
C 7.296875 40.296875 10 40.296875 10.09375 36.25 
L 10.09375 16.859375 
C 10.09375 10.09375 10.09375 5.75 12.703125 2.921875 
C 14 1.609375 16.5 -1 23.703125 -1 
C 32.203125 -1 35.5 6.25 36.296875 8.375 
L 36.40625 8.375 
L 36.40625 -1 
L 48.296875 -0.203125 
L 48.296875 2.40625 
C 42.40625 2.40625 41.5 3.015625 41.5 7.859375 
L 41.5 44 
z
" id="CMR17-117"/>
       <path d="M 15.09375 40.390625 
L 29.09375 40.390625 
L 29.09375 43 
L 15.09375 43 
L 15.09375 62 
L 13.296875 62 
C 13.09375 51.4375 9.59375 42.1875 1.09375 41.984375 
L 1.09375 40.390625 
L 9.796875 40.390625 
L 9.796875 12.15625 
C 9.796875 10.234375 9.796875 -1 21.40625 -1 
C 27.296875 -1 30.703125 4.8125 30.703125 12.25 
L 30.703125 17.984375 
L 28.90625 17.984375 
L 28.90625 12.34375 
C 28.90625 5.421875 26.203125 0.796875 22 0.796875 
C 19.09375 0.796875 15.09375 2.796875 15.09375 11.953125 
z
" id="CMR17-116"/>
       <path d="M 11.09375 18.203125 
C 13 16.6875 16.296875 15 20.296875 15 
C 28.203125 15 35 21.234375 35 29.609375 
C 35 32.234375 34.203125 36.265625 31.203125 39.390625 
C 34 42.390625 38.09375 43.390625 40.40625 43.390625 
C 40.796875 43.390625 41.40625 43.390625 41.90625 43.09375 
C 41.5 42.984375 40.59375 42.59375 40.59375 40.984375 
C 40.59375 39.6875 41.5 38.796875 42.796875 38.796875 
C 44.296875 38.796875 45.09375 39.796875 45.09375 41.09375 
C 45.09375 42.984375 43.59375 45 40.40625 45 
C 36.40625 45 32.90625 43.09375 30.09375 40.484375 
C 27.09375 43.1875 23.5 44.1875 20.296875 44.1875 
C 12.40625 44.1875 5.59375 37.984375 5.59375 29.609375 
C 5.59375 23.859375 8.90625 20.21875 9.90625 19.21875 
C 6.90625 15.6875 6.90625 11.59375 6.90625 11.09375 
C 6.90625 8.5 7.90625 4.6875 11.296875 2.59375 
C 6.09375 1.28125 2 -2.875 2 -8.078125 
C 2 -15.5625 11.5 -21 22.90625 -21 
C 33.90625 -21 43.796875 -15.765625 43.796875 -7.96875 
C 43.796875 6 29 6 21.296875 6 
C 19 6 14.90625 6 14.40625 6.09375 
C 11.296875 6.59375 9.203125 9.390625 9.203125 12.890625 
C 9.203125 13.796875 9.203125 16 11.09375 18.203125 
z
M 20.296875 16.6875 
C 11.5 16.6875 11.5 27.59375 11.5 29.609375 
C 11.5 31.625 11.5 42.484375 20.296875 42.484375 
C 29.09375 42.484375 29.09375 31.625 29.09375 29.609375 
C 29.09375 27.59375 29.09375 16.6875 20.296875 16.6875 
z
M 22.90625 -19.3125 
C 12.90625 -19.3125 6 -13.796875 6 -8.078125 
C 6 -4.859375 7.703125 -1.84375 9.90625 -0.171875 
C 12.40625 1.59375 13.40625 1.59375 20.203125 1.59375 
C 28.40625 1.59375 39.796875 1.59375 39.796875 -8.078125 
C 39.796875 -13.796875 32.90625 -19.3125 22.90625 -19.3125 
z
" id="CMR17-103"/>
      </defs>
      <use transform="scale(0.996264)" xlink:href="#CMR17-99"/>
      <use transform="translate(40.48566 0)scale(0.996264)" xlink:href="#CMR17-117"/>
      <use transform="translate(91.38103 0)scale(0.996264)" xlink:href="#CMR17-114"/>
      <use transform="translate(126.661798 0)scale(0.996264)" xlink:href="#CMR17-114"/>
      <use transform="translate(161.942566 0)scale(0.996264)" xlink:href="#CMR17-101"/>
      <use transform="translate(202.428226 0)scale(0.996264)" xlink:href="#CMR17-110"/>
      <use transform="translate(250.721142 0)scale(0.996264)" xlink:href="#CMR17-116"/>
      <use transform="translate(316.077876 0)scale(0.996264)" xlink:href="#CMR17-105"/>
      <use transform="translate(340.948935 0)scale(0.996264)" xlink:href="#CMR17-109"/>
      <use transform="translate(417.868525 0)scale(0.996264)" xlink:href="#CMR17-97"/>
      <use transform="translate(463.559002 0)scale(0.996264)" xlink:href="#CMR17-103"/>
      <use transform="translate(509.249479 0)scale(0.996264)" xlink:href="#CMR17-101"/>
      <use transform="translate(579.811106 0)scale(0.996264)" xlink:href="#CMR17-105"/>
      <use transform="translate(604.682164 0)scale(0.996264)" xlink:href="#CMR17-110"/>
      <use transform="translate(655.577534 0)scale(0.996264)" xlink:href="#CMR17-100"/>
      <use transform="translate(706.472904 0)scale(0.996264)" xlink:href="#CMR17-101"/>
      <use transform="translate(746.958564 0)scale(0.996264)" xlink:href="#CMR17-120"/>
     </g>
    </g>
   </g>
   <g id="matplotlib.axis_6">
    <g id="ytick_5">
     <g id="line2d_35">
      <g>
       <use style="stroke:#000000;stroke-width:0.8;" x="172.62" xlink:href="#mda7529d924" y="190.678252"/>
      </g>
     </g>
     <g id="text_18">
      <!-- $\mathdefault{0.1}$ -->
      <g transform="translate(152.889921 194.137502)scale(0.1 -0.1)">
       <use transform="scale(0.996264)" xlink:href="#CMR17-48"/>
       <use transform="translate(45.690477 0)scale(0.996264)" xlink:href="#CMMI12-58"/>
       <use transform="translate(72.787654 0)scale(0.996264)" xlink:href="#CMR17-49"/>
      </g>
     </g>
    </g>
    <g id="ytick_6">
     <g id="line2d_36">
      <g>
       <use style="stroke:#000000;stroke-width:0.8;" x="172.62" xlink:href="#mda7529d924" y="171.278377"/>
      </g>
     </g>
     <g id="text_19">
      <!-- $\mathdefault{0.2}$ -->
      <g transform="translate(152.889921 174.737626)scale(0.1 -0.1)">
       <use transform="scale(0.996264)" xlink:href="#CMR17-48"/>
       <use transform="translate(45.690477 0)scale(0.996264)" xlink:href="#CMMI12-58"/>
       <use transform="translate(72.787654 0)scale(0.996264)" xlink:href="#CMR17-50"/>
      </g>
     </g>
    </g>
    <g id="ytick_7">
     <g id="line2d_37">
      <g>
       <use style="stroke:#000000;stroke-width:0.8;" x="172.62" xlink:href="#mda7529d924" y="151.878501"/>
      </g>
     </g>
     <g id="text_20">
      <!-- $\mathdefault{0.3}$ -->
      <g transform="translate(152.889921 155.33775)scale(0.1 -0.1)">
       <use transform="scale(0.996264)" xlink:href="#CMR17-48"/>
       <use transform="translate(45.690477 0)scale(0.996264)" xlink:href="#CMMI12-58"/>
       <use transform="translate(72.787654 0)scale(0.996264)" xlink:href="#CMR17-51"/>
      </g>
     </g>
    </g>
    <g id="text_21">
     <!-- error in z [m] -->
     <g transform="translate(146.399261 199.923311)rotate(-90)scale(0.1 -0.1)">
      <use transform="scale(0.996264)" xlink:href="#CMR17-101"/>
      <use transform="translate(40.48566 0)scale(0.996264)" xlink:href="#CMR17-114"/>
      <use transform="translate(75.766428 0)scale(0.996264)" xlink:href="#CMR17-114"/>
      <use transform="translate(111.047196 0)scale(0.996264)" xlink:href="#CMR17-111"/>
      <use transform="translate(156.737673 0)scale(0.996264)" xlink:href="#CMR17-114"/>
      <use transform="translate(222.094407 0)scale(0.996264)" xlink:href="#CMR17-105"/>
      <use transform="translate(246.965466 0)scale(0.996264)" xlink:href="#CMR17-110"/>
      <use transform="translate(327.936802 0)scale(0.996264)" xlink:href="#CMR17-122"/>
      <use transform="translate(398.498429 0)scale(0.996264)" xlink:href="#CMR17-91"/>
      <use transform="translate(423.369487 0)scale(0.996264)" xlink:href="#CMR17-109"/>
      <use transform="translate(500.289077 0)scale(0.996264)" xlink:href="#CMR17-93"/>
     </g>
    </g>
   </g>
   <g id="line2d_38">
    <path clip-path="url(#p27acff5ad4)" d="M 221.267455 193.583907 
L 254.817423 192.23451 
L 288.367392 197.29491 
L 321.917361 192.063869 
L 355.467329 186.696622 
L 389.017298 184.289291 
L 422.567266 177.124335 
L 456.117235 178.651881 
L 489.667204 176.098082 
L 523.217172 176.264727 
L 556.767141 182.009612 
L 590.31711 170.350093 
L 623.867078 171.705756 
L 657.417047 165.884241 
L 690.967016 173.075581 
L 724.516984 181.491829 
L 758.066953 185.75534 
L 791.616922 182.63099 
L 825.16689 171.682282 
L 858.716859 179.758838 
L 892.266828 184.089085 
L 925.816796 182.470941 
L 959.366765 180.892567 
L 992.916734 173.661069 
L 1026.466702 158.829865 
L 1060.016671 144.8928 
L 1093.566639 159.392655 
L 1127.116608 172.408226 
L 1160.666577 171.286719 
L 1194.216545 160.781686 
" style="fill:none;stroke:#1f77b4;stroke-linecap:square;stroke-width:1.5;"/>
   </g>
   <g id="line2d_39">
    <path clip-path="url(#p27acff5ad4)" d="M 221.267455 193.585809 
L 254.817423 192.239477 
L 288.367392 197.3088 
L 321.917361 192.091902 
L 355.467329 186.711948 
L 389.017298 184.218094 
L 422.567266 177.130931 
L 456.117235 178.673221 
L 489.667204 176.112632 
L 523.217172 176.274233 
L 556.767141 182.0294 
L 590.31711 170.396458 
L 623.867078 171.763762 
L 657.417047 165.981047 
L 690.967016 173.126603 
L 724.516984 181.516273 
L 758.066953 185.788902 
L 791.616922 182.712663 
L 825.16689 171.821185 
L 858.716859 179.83314 
L 892.266828 184.143016 
L 925.816796 182.577058 
L 959.366765 181.018084 
L 992.916734 173.777857 
L 1026.466702 158.985258 
L 1060.016671 145.160324 
L 1093.566639 159.517784 
L 1127.116608 172.453621 
L 1160.666577 171.334248 
L 1194.216545 160.832902 
" style="fill:none;stroke:#ff7f0e;stroke-linecap:square;stroke-width:1.5;"/>
   </g>
   <g id="patch_15">
    <path d="M 172.62 199.9296 
L 172.62 142.272 
" style="fill:none;stroke:#000000;stroke-linecap:square;stroke-linejoin:miter;stroke-width:0.8;"/>
   </g>
   <g id="patch_16">
    <path d="M 1242.864 199.9296 
L 1242.864 142.272 
" style="fill:none;stroke:#000000;stroke-linecap:square;stroke-linejoin:miter;stroke-width:0.8;"/>
   </g>
   <g id="patch_17">
    <path d="M 172.62 199.9296 
L 1242.864 199.9296 
" style="fill:none;stroke:#000000;stroke-linecap:square;stroke-linejoin:miter;stroke-width:0.8;"/>
   </g>
   <g id="patch_18">
    <path d="M 172.62 142.272 
L 1242.864 142.272 
" style="fill:none;stroke:#000000;stroke-linecap:square;stroke-linejoin:miter;stroke-width:0.8;"/>
   </g>
   <g id="legend_3">
    <g id="patch_19">
     <path d="M 179.62 179.485741 
L 285.869473 179.485741 
Q 287.869473 179.485741 287.869473 177.485741 
L 287.869473 149.272 
Q 287.869473 147.272 285.869473 147.272 
L 179.62 147.272 
Q 177.62 147.272 177.62 149.272 
L 177.62 177.485741 
Q 177.62 179.485741 179.62 179.485741 
z
" style="fill:#ffffff;opacity:0.8;stroke:#cccccc;stroke-linejoin:miter;"/>
    </g>
    <g id="line2d_40">
     <path d="M 181.62 155.370438 
L 201.62 155.370438 
" style="fill:none;stroke:#1f77b4;stroke-linecap:square;stroke-width:1.5;"/>
    </g>
    <g id="line2d_41"/>
    <g id="text_22">
     <!-- pyramid size = 4 -->
     <g transform="translate(209.62 158.870438)scale(0.1 -0.1)">
      <use transform="scale(0.996264)" xlink:href="#CMR17-112"/>
      <use transform="translate(48.292916 0)scale(0.996264)" xlink:href="#CMR17-121"/>
      <use transform="translate(96.585832 0)scale(0.996264)" xlink:href="#CMR17-114"/>
      <use transform="translate(131.866599 0)scale(0.996264)" xlink:href="#CMR17-97"/>
      <use transform="translate(177.557077 0)scale(0.996264)" xlink:href="#CMR17-109"/>
      <use transform="translate(254.476666 0)scale(0.996264)" xlink:href="#CMR17-105"/>
      <use transform="translate(279.347725 0)scale(0.996264)" xlink:href="#CMR17-100"/>
      <use transform="translate(360.319061 0)scale(0.996264)" xlink:href="#CMR17-115"/>
      <use transform="translate(396.120399 0)scale(0.996264)" xlink:href="#CMR17-105"/>
      <use transform="translate(420.991457 0)scale(0.996264)" xlink:href="#CMR17-122"/>
      <use transform="translate(461.477118 0)scale(0.996264)" xlink:href="#CMR17-101"/>
      <use transform="translate(532.038744 0)scale(0.996264)" xlink:href="#CMR17-61"/>
      <use transform="translate(633.829499 0)scale(0.996264)" xlink:href="#CMR17-52"/>
     </g>
    </g>
    <g id="line2d_42">
     <path d="M 181.62 170.048563 
L 201.62 170.048563 
" style="fill:none;stroke:#ff7f0e;stroke-linecap:square;stroke-width:1.5;"/>
    </g>
    <g id="line2d_43"/>
    <g id="text_23">
     <!-- pyramid size = 6 -->
     <g transform="translate(209.62 173.548563)scale(0.1 -0.1)">
      <use transform="scale(0.996264)" xlink:href="#CMR17-112"/>
      <use transform="translate(48.292916 0)scale(0.996264)" xlink:href="#CMR17-121"/>
      <use transform="translate(96.585832 0)scale(0.996264)" xlink:href="#CMR17-114"/>
      <use transform="translate(131.866599 0)scale(0.996264)" xlink:href="#CMR17-97"/>
      <use transform="translate(177.557077 0)scale(0.996264)" xlink:href="#CMR17-109"/>
      <use transform="translate(254.476666 0)scale(0.996264)" xlink:href="#CMR17-105"/>
      <use transform="translate(279.347725 0)scale(0.996264)" xlink:href="#CMR17-100"/>
      <use transform="translate(360.319061 0)scale(0.996264)" xlink:href="#CMR17-115"/>
      <use transform="translate(396.120399 0)scale(0.996264)" xlink:href="#CMR17-105"/>
      <use transform="translate(420.991457 0)scale(0.996264)" xlink:href="#CMR17-122"/>
      <use transform="translate(461.477118 0)scale(0.996264)" xlink:href="#CMR17-101"/>
      <use transform="translate(532.038744 0)scale(0.996264)" xlink:href="#CMR17-61"/>
      <use transform="translate(633.829499 0)scale(0.996264)" xlink:href="#CMR17-54"/>
     </g>
    </g>
   </g>
  </g>
 </g>
 <defs>
  <clipPath id="pfc12d62c63">
   <rect height="57.6576" width="1070.244" x="172.62" y="26.9568"/>
  </clipPath>
  <clipPath id="pf0d656cf8e">
   <rect height="57.6576" width="1070.244" x="172.62" y="84.6144"/>
  </clipPath>
  <clipPath id="p27acff5ad4">
   <rect height="57.6576" width="1070.244" x="172.62" y="142.272"/>
  </clipPath>
 </defs>
</svg>
