<?xml version="1.0" encoding="utf-8" standalone="no"?>
<!DOCTYPE svg PUBLIC "-//W3C//DTD SVG 1.1//EN"
  "http://www.w3.org/Graphics/SVG/1.1/DTD/svg11.dtd">
<!-- Created with matplotlib (https://matplotlib.org/) -->
<svg height="351.36pt" version="1.1" viewBox="0 0 1380.96 351.36" width="1380.96pt" xmlns="http://www.w3.org/2000/svg" xmlns:xlink="http://www.w3.org/1999/xlink">
 <metadata>
  <rdf:RDF xmlns:cc="http://creativecommons.org/ns#" xmlns:dc="http://purl.org/dc/elements/1.1/" xmlns:rdf="http://www.w3.org/1999/02/22-rdf-syntax-ns#">
   <cc:Work>
    <dc:type rdf:resource="http://purl.org/dc/dcmitype/StillImage"/>
    <dc:date>2021-04-02T07:29:29.856288</dc:date>
    <dc:format>image/svg+xml</dc:format>
    <dc:creator>
     <cc:Agent>
      <dc:title>Matplotlib v3.3.4, https://matplotlib.org/</dc:title>
     </cc:Agent>
    </dc:creator>
   </cc:Work>
  </rdf:RDF>
 </metadata>
 <defs>
  <style type="text/css">*{stroke-linecap:butt;stroke-linejoin:round;}</style>
 </defs>
 <g id="figure_1">
  <g id="patch_1">
   <path d="M 0 351.36 
L 1380.96 351.36 
L 1380.96 0 
L 0 0 
z
" style="fill:#ffffff;"/>
  </g>
  <g id="axes_1">
   <g id="patch_2">
    <path d="M 172.62 132.3456 
L 1242.864 132.3456 
L 1242.864 42.1632 
L 172.62 42.1632 
z
" style="fill:#ffffff;"/>
   </g>
   <g id="matplotlib.axis_1">
    <g id="xtick_1">
     <g id="line2d_1">
      <defs>
       <path d="M 0 0 
L 0 3.5 
" id="maaee3fa9e7" style="stroke:#000000;stroke-width:0.8;"/>
      </defs>
      <g>
       <use style="stroke:#000000;stroke-width:0.8;" x="188.286129" xlink:href="#maaee3fa9e7" y="132.3456"/>
      </g>
     </g>
    </g>
    <g id="xtick_2">
     <g id="line2d_2">
      <g>
       <use style="stroke:#000000;stroke-width:0.8;" x="353.192755" xlink:href="#maaee3fa9e7" y="132.3456"/>
      </g>
     </g>
    </g>
    <g id="xtick_3">
     <g id="line2d_3">
      <g>
       <use style="stroke:#000000;stroke-width:0.8;" x="518.099381" xlink:href="#maaee3fa9e7" y="132.3456"/>
      </g>
     </g>
    </g>
    <g id="xtick_4">
     <g id="line2d_4">
      <g>
       <use style="stroke:#000000;stroke-width:0.8;" x="683.006006" xlink:href="#maaee3fa9e7" y="132.3456"/>
      </g>
     </g>
    </g>
    <g id="xtick_5">
     <g id="line2d_5">
      <g>
       <use style="stroke:#000000;stroke-width:0.8;" x="847.912632" xlink:href="#maaee3fa9e7" y="132.3456"/>
      </g>
     </g>
    </g>
    <g id="xtick_6">
     <g id="line2d_6">
      <g>
       <use style="stroke:#000000;stroke-width:0.8;" x="1012.819257" xlink:href="#maaee3fa9e7" y="132.3456"/>
      </g>
     </g>
    </g>
    <g id="xtick_7">
     <g id="line2d_7">
      <g>
       <use style="stroke:#000000;stroke-width:0.8;" x="1177.725883" xlink:href="#maaee3fa9e7" y="132.3456"/>
      </g>
     </g>
    </g>
   </g>
   <g id="matplotlib.axis_2">
    <g id="ytick_1">
     <g id="line2d_8">
      <defs>
       <path d="M 0 0 
L -3.5 0 
" id="m5fb4aa6650" style="stroke:#000000;stroke-width:0.8;"/>
      </defs>
      <g>
       <use style="stroke:#000000;stroke-width:0.8;" x="172.62" xlink:href="#m5fb4aa6650" y="128.258189"/>
      </g>
     </g>
     <g id="text_1">
      <!-- $\mathdefault{0}$ -->
      <g transform="translate(160.638665 131.717438)scale(0.1 -0.1)">
       <defs>
        <path d="M 42 31.84375 
C 42 37.96875 41.90625 48.421875 37.703125 56.453125 
C 34 63.484375 28.09375 66 22.90625 66 
C 18.09375 66 12 63.78125 8.203125 56.5625 
C 4.203125 49.015625 3.796875 39.671875 3.796875 31.84375 
C 3.796875 26.109375 3.90625 17.375 7 9.734375 
C 11.296875 -0.609375 19 -2 22.90625 -2 
C 27.5 -2 34.5 -0.109375 38.59375 9.4375 
C 41.59375 16.375 42 24.5 42 31.84375 
z
M 22.90625 -0.40625 
C 16.5 -0.40625 12.703125 5.125 11.296875 12.75 
C 10.203125 18.6875 10.203125 27.328125 10.203125 32.953125 
C 10.203125 40.6875 10.203125 47.109375 11.5 53.234375 
C 13.40625 61.78125 19 64.390625 22.90625 64.390625 
C 27 64.390625 32.296875 61.671875 34.203125 53.4375 
C 35.5 47.71875 35.59375 40.984375 35.59375 32.953125 
C 35.59375 26.421875 35.59375 18.375 34.40625 12.453125 
C 32.296875 1.5 26.40625 -0.40625 22.90625 -0.40625 
z
" id="CMR17-48"/>
       </defs>
       <use transform="scale(0.996264)" xlink:href="#CMR17-48"/>
      </g>
     </g>
    </g>
    <g id="ytick_2">
     <g id="line2d_9">
      <g>
       <use style="stroke:#000000;stroke-width:0.8;" x="172.62" xlink:href="#m5fb4aa6650" y="96.478969"/>
      </g>
     </g>
     <g id="text_2">
      <!-- $\mathdefault{1}$ -->
      <g transform="translate(160.638665 99.938219)scale(0.1 -0.1)">
       <defs>
        <path d="M 26.59375 63.796875 
C 26.59375 65.890625 26.5 66 25.09375 66 
C 21.203125 61.359375 15.296875 59.890625 9.703125 59.6875 
C 9.40625 59.6875 8.90625 59.6875 8.796875 59.5 
C 8.703125 59.296875 8.703125 59.09375 8.703125 57 
C 11.796875 57 17 57.59375 21 59.984375 
L 21 7.296875 
C 21 3.796875 20.796875 2.59375 12.203125 2.59375 
L 9.203125 2.59375 
L 9.203125 0 
C 14 0.09375 19 0.1875 23.796875 0.1875 
C 28.59375 0.1875 33.59375 0.09375 38.40625 0 
L 38.40625 2.59375 
L 35.40625 2.59375 
C 26.796875 2.59375 26.59375 3.6875 26.59375 7.296875 
z
" id="CMR17-49"/>
       </defs>
       <use transform="scale(0.996264)" xlink:href="#CMR17-49"/>
      </g>
     </g>
    </g>
    <g id="ytick_3">
     <g id="line2d_10">
      <g>
       <use style="stroke:#000000;stroke-width:0.8;" x="172.62" xlink:href="#m5fb4aa6650" y="64.69975"/>
      </g>
     </g>
     <g id="text_3">
      <!-- $\mathdefault{2}$ -->
      <g transform="translate(160.638665 68.158999)scale(0.1 -0.1)">
       <defs>
        <path d="M 41.703125 15.46875 
L 39.90625 15.46875 
C 38.90625 8.390625 38.09375 7.1875 37.703125 6.59375 
C 37.203125 5.796875 30 5.796875 28.59375 5.796875 
L 9.40625 5.796875 
C 13 9.6875 20 16.765625 28.5 24.9375 
C 34.59375 30.71875 41.703125 37.5 41.703125 47.390625 
C 41.703125 59.1875 32.296875 66 21.796875 66 
C 10.796875 66 4.09375 56.296875 4.09375 47.296875 
C 4.09375 43.390625 7 42.890625 8.203125 42.890625 
C 9.203125 42.890625 12.203125 43.484375 12.203125 46.984375 
C 12.203125 50.09375 9.59375 51 8.203125 51 
C 7.59375 51 7 50.890625 6.59375 50.6875 
C 8.5 59.1875 14.296875 63.390625 20.40625 63.390625 
C 29.09375 63.390625 34.796875 56.5 34.796875 47.390625 
C 34.796875 38.703125 29.703125 31.21875 24 24.734375 
L 4.09375 2.296875 
L 4.09375 0 
L 39.296875 0 
z
" id="CMR17-50"/>
       </defs>
       <use transform="scale(0.996264)" xlink:href="#CMR17-50"/>
      </g>
     </g>
    </g>
    <g id="text_4">
     <!-- error in x [m] -->
     <g transform="translate(154.148005 116.492034)rotate(-90)scale(0.1 -0.1)">
      <defs>
       <path d="M 38.09375 23.484375 
C 38.5 23.890625 38.5 24.09375 38.5 25.09375 
C 38.5 35.171875 33.09375 44 21.703125 44 
C 11.09375 44 2.703125 33.984375 2.703125 21.78125 
C 2.703125 8.65625 12.203125 -1 22.796875 -1 
C 34 -1 38.40625 9.671875 38.40625 11.796875 
C 38.40625 12.5 37.796875 12.5 37.59375 12.5 
C 36.90625 12.5 36.796875 12.296875 36.40625 11.078125 
C 34.203125 4.21875 28.703125 0.796875 23.5 0.796875 
C 19.203125 0.796875 14.90625 3.21875 12.203125 7.65625 
C 9.09375 12.796875 9.09375 18.75 9.09375 23.484375 
z
M 9.203125 25 
C 9.90625 39.234375 17.59375 42.390625 21.59375 42.390625 
C 28.40625 42.390625 33 36.0625 33.09375 25 
z
" id="CMR17-101"/>
       <path d="M 15 23.703125 
C 15 33.34375 19.09375 42.390625 26.59375 42.390625 
C 27.296875 42.390625 28 42.296875 28.703125 41.984375 
C 28.703125 41.984375 26.5 41.28125 26.5 38.671875 
C 26.5 36.265625 28.40625 35.265625 29.90625 35.265625 
C 31.09375 35.265625 33.296875 35.96875 33.296875 38.78125 
C 33.296875 41.984375 30.09375 44 26.703125 44 
C 19.09375 44 15.796875 36.5625 14.796875 33.046875 
L 14.703125 33.046875 
L 14.703125 44 
L 3.09375 42.890625 
L 3.09375 40.28125 
C 9 40.28125 9.90625 39.6875 9.90625 34.859375 
L 9.90625 6.921875 
C 9.90625 3.09375 9.5 2.59375 3.09375 2.59375 
L 3.09375 0 
C 5.5 0.1875 10.09375 0.1875 12.703125 0.1875 
C 15.59375 0.1875 20.703125 0.1875 23.40625 0 
L 23.40625 2.59375 
C 16.203125 2.59375 15 2.59375 15 7.109375 
z
" id="CMR17-114"/>
       <path d="M 43.09375 21.1875 
C 43.09375 34 33.796875 44 22.90625 44 
C 12 44 2.703125 34 2.703125 21.1875 
C 2.703125 8.59375 12 -1 22.90625 -1 
C 33.796875 -1 43.09375 8.59375 43.09375 21.1875 
z
M 22.90625 0.796875 
C 18.203125 0.796875 14.203125 3.59375 11.90625 7.5 
C 9.40625 12 9.09375 17.59375 9.09375 22 
C 9.09375 26.1875 9.296875 31.390625 11.90625 35.890625 
C 13.90625 39.1875 17.796875 42.390625 22.90625 42.390625 
C 27.40625 42.390625 31.203125 39.890625 33.59375 36.390625 
C 36.703125 31.6875 36.703125 25.09375 36.703125 22 
C 36.703125 18.09375 36.5 12.09375 33.796875 7.296875 
C 31 2.6875 26.703125 0.796875 22.90625 0.796875 
z
" id="CMR17-111"/>
       <path d="M 15.5 61.890625 
C 15.5 64.09375 13.703125 66 11.40625 66 
C 9.203125 66 7.296875 64.1875 7.296875 61.890625 
C 7.296875 59.6875 9.09375 57.796875 11.40625 57.796875 
C 13.59375 57.796875 15.5 59.59375 15.5 61.890625 
z
M 3.796875 42.890625 
L 3.796875 40.296875 
C 9.40625 40.296875 10.203125 39.6875 10.203125 34.859375 
L 10.203125 6.921875 
C 10.203125 3.09375 9.796875 2.59375 3.40625 2.59375 
L 3.40625 0 
C 5.796875 0.1875 10.09375 0.1875 12.59375 0.1875 
C 15 0.1875 19.09375 0.1875 21.40625 0 
L 21.40625 2.59375 
C 15.5 2.59375 15.296875 3.203125 15.296875 6.8125 
L 15.296875 44 
z
" id="CMR17-105"/>
       <path d="M 41.5 30.53125 
C 41.5 35.65625 40.5 44 28.703125 44 
C 20.796875 44 16.703125 37.875 15.203125 33.84375 
L 15.09375 33.84375 
L 15.09375 44 
L 3.296875 42.890625 
L 3.296875 40.28125 
C 9.203125 40.28125 10.09375 39.6875 10.09375 34.859375 
L 10.09375 6.921875 
C 10.09375 3.09375 9.703125 2.59375 3.296875 2.59375 
L 3.296875 0 
C 5.703125 0.1875 10.09375 0.1875 12.703125 0.1875 
C 15.296875 0.1875 19.796875 0.1875 22.203125 0 
L 22.203125 2.59375 
C 15.796875 2.59375 15.40625 3 15.40625 6.921875 
L 15.40625 26.21875 
C 15.40625 35.453125 21 42.390625 28 42.390625 
C 35.40625 42.390625 36.203125 35.765625 36.203125 30.9375 
L 36.203125 6.921875 
C 36.203125 3.09375 35.796875 2.59375 29.40625 2.59375 
L 29.40625 0 
C 31.796875 0.1875 36.203125 0.1875 38.796875 0.1875 
C 41.40625 0.1875 45.90625 0.1875 48.296875 0 
L 48.296875 2.59375 
C 41.90625 2.59375 41.5 3 41.5 6.921875 
z
" id="CMR17-110"/>
       <path d="M 26 23.296875 
C 29 27.1875 32.40625 31.59375 35.203125 34.890625 
C 38.5 38.6875 42.296875 40.296875 46.703125 40.390625 
L 46.703125 43 
C 45 42.890625 41.5 42.796875 39.703125 42.796875 
C 37 42.796875 33.90625 42.796875 31.59375 43 
L 31.59375 40.390625 
C 33 40.1875 33.796875 39.1875 33.796875 37.796875 
C 33.796875 36 32.796875 34.890625 32.296875 34.1875 
L 24.90625 24.796875 
L 16.09375 36.296875 
C 15.203125 37.390625 15.203125 37.59375 15.203125 38.09375 
C 15.203125 39.296875 16.203125 40.296875 17.90625 40.390625 
L 17.90625 43 
C 15.5 42.796875 11.203125 42.796875 8.703125 42.796875 
C 6 42.796875 2.796875 42.796875 0.59375 43 
L 0.59375 40.390625 
C 6 40.390625 7.203125 40 9.59375 37 
L 21.09375 22.09375 
C 21.296875 21.890625 21.796875 21.296875 21.796875 21 
C 21.796875 20.59375 13.09375 9.890625 12 8.5 
C 7.5 3.09375 2.796875 2.6875 0.09375 2.59375 
L 0.09375 0 
C 1.796875 0.09375 5.296875 0.1875 7.09375 0.1875 
C 9.09375 0.1875 13.5 0.1875 15.296875 0 
L 15.296875 2.59375 
C 14.703125 2.6875 13.09375 2.890625 13.09375 5.1875 
C 13.09375 7 13.90625 8.09375 14.796875 9.296875 
L 23.09375 19.5 
L 31.796875 8.1875 
C 32.59375 7.09375 33.796875 5.59375 33.796875 4.890625 
C 33.796875 3.5 32.59375 2.6875 31 2.59375 
L 31 0 
C 33.40625 0.1875 37.703125 0.1875 40.203125 0.1875 
C 42.90625 0.1875 46.09375 0.1875 48.296875 0 
L 48.296875 2.59375 
C 43.296875 2.59375 41.796875 2.796875 39.40625 5.890625 
z
" id="CMR17-120"/>
       <path d="M 23.5 -25 
L 23.5 -21.5 
L 14.09375 -21.5 
L 14.09375 71.484375 
L 23.5 71.484375 
L 23.5 75 
L 10.59375 75 
L 10.59375 -25 
z
" id="CMR17-91"/>
       <path d="M 67.59375 30.53125 
C 67.59375 35.5625 66.703125 44 54.796875 44 
C 48 44 43.296875 39.375 41.5 33.953125 
L 41.40625 33.953125 
C 40.203125 42.1875 34.296875 44 28.703125 44 
C 20.796875 44 16.703125 37.875 15.203125 33.84375 
L 15.09375 33.84375 
L 15.09375 44 
L 3.296875 42.890625 
L 3.296875 40.28125 
C 9.203125 40.28125 10.09375 39.6875 10.09375 34.859375 
L 10.09375 6.921875 
C 10.09375 3.09375 9.703125 2.59375 3.296875 2.59375 
L 3.296875 0 
C 5.703125 0.1875 10.09375 0.1875 12.703125 0.1875 
C 15.296875 0.1875 19.796875 0.1875 22.203125 0 
L 22.203125 2.59375 
C 15.796875 2.59375 15.40625 3 15.40625 6.921875 
L 15.40625 26.21875 
C 15.40625 35.453125 21 42.390625 28 42.390625 
C 35.40625 42.390625 36.203125 35.765625 36.203125 30.9375 
L 36.203125 6.921875 
C 36.203125 3.09375 35.796875 2.59375 29.40625 2.59375 
L 29.40625 0 
C 31.796875 0.1875 36.203125 0.1875 38.796875 0.1875 
C 41.40625 0.1875 45.90625 0.1875 48.296875 0 
L 48.296875 2.59375 
C 41.90625 2.59375 41.5 3 41.5 6.921875 
L 41.5 26.21875 
C 41.5 35.453125 47.09375 42.390625 54.09375 42.390625 
C 61.5 42.390625 62.296875 35.765625 62.296875 30.9375 
L 62.296875 6.921875 
C 62.296875 3.09375 61.90625 2.59375 55.5 2.59375 
L 55.5 0 
C 57.90625 0.1875 62.296875 0.1875 64.90625 0.1875 
C 67.5 0.1875 72 0.1875 74.40625 0 
L 74.40625 2.59375 
C 68 2.59375 67.59375 3 67.59375 6.921875 
z
" id="CMR17-109"/>
       <path d="M 14.296875 75 
L 1.40625 75 
L 1.40625 71.484375 
L 10.796875 71.484375 
L 10.796875 -21.5 
L 1.40625 -21.5 
L 1.40625 -25 
L 14.296875 -25 
z
" id="CMR17-93"/>
      </defs>
      <use transform="scale(0.996264)" xlink:href="#CMR17-101"/>
      <use transform="translate(40.48566 0)scale(0.996264)" xlink:href="#CMR17-114"/>
      <use transform="translate(75.766428 0)scale(0.996264)" xlink:href="#CMR17-114"/>
      <use transform="translate(111.047196 0)scale(0.996264)" xlink:href="#CMR17-111"/>
      <use transform="translate(156.737673 0)scale(0.996264)" xlink:href="#CMR17-114"/>
      <use transform="translate(222.094407 0)scale(0.996264)" xlink:href="#CMR17-105"/>
      <use transform="translate(246.965466 0)scale(0.996264)" xlink:href="#CMR17-110"/>
      <use transform="translate(327.936802 0)scale(0.996264)" xlink:href="#CMR17-120"/>
      <use transform="translate(406.305684 0)scale(0.996264)" xlink:href="#CMR17-91"/>
      <use transform="translate(431.176743 0)scale(0.996264)" xlink:href="#CMR17-109"/>
      <use transform="translate(508.096332 0)scale(0.996264)" xlink:href="#CMR17-93"/>
     </g>
    </g>
   </g>
   <g id="line2d_11">
    <path clip-path="url(#p8a1a9fe2aa)" d="M 221.267455 127.839113 
L 237.758117 127.585073 
L 254.24878 126.70518 
L 270.739442 127.626618 
L 287.230105 128.235788 
L 303.720767 127.573665 
L 320.21143 126.185793 
L 336.702092 127.297545 
L 353.192755 127.071327 
L 369.683418 127.620634 
L 386.17408 127.38059 
L 402.664743 125.910515 
L 419.155405 126.252221 
L 435.646068 125.869711 
L 452.13673 125.028149 
L 468.627393 125.03066 
L 485.118055 122.018943 
L 501.608718 121.737856 
L 518.099381 124.157939 
L 534.590043 123.145103 
L 551.080706 123.36724 
L 567.571368 124.382396 
L 584.062031 119.822808 
L 600.552693 119.357592 
L 617.043356 119.520842 
L 633.534018 118.036435 
L 650.024681 126.81629 
L 666.515344 126.395949 
L 683.006006 127.998739 
L 699.496669 122.680555 
L 715.987331 121.693111 
L 732.477994 124.995385 
L 748.968656 123.941236 
L 765.459319 124.149231 
L 781.949982 121.133479 
L 798.440644 126.952772 
L 814.931307 127.350155 
L 831.421969 119.416829 
L 847.912632 122.431565 
L 864.403294 119.940868 
L 880.893957 112.373759 
L 897.384619 102.536947 
L 913.875282 93.743096 
L 930.365945 89.99156 
L 946.856607 81.200792 
L 963.34727 100.608044 
L 979.837932 104.014585 
L 996.328595 94.868081 
L 1012.819257 127.326206 
L 1029.30992 118.554436 
L 1045.800582 109.7828 
L 1062.291245 101.017074 
L 1078.781908 92.273625 
L 1095.27257 83.51273 
L 1111.763233 74.775669 
L 1128.253895 66.019541 
L 1144.744558 99.059855 
L 1161.23522 81.62568 
L 1177.725883 52.815275 
L 1194.216545 61.626382 
" style="fill:none;stroke:#1f77b4;stroke-linecap:square;stroke-width:1.5;"/>
   </g>
   <g id="line2d_12">
    <path clip-path="url(#p8a1a9fe2aa)" d="M 221.267455 128.2464 
L 237.758117 126.8944 
L 254.24878 127.436725 
L 270.739442 126.908236 
L 287.230105 127.251214 
L 303.720767 128.121346 
L 320.21143 127.218453 
L 336.702092 127.438482 
L 353.192755 127.218389 
L 369.683418 128.203773 
L 386.17408 126.747551 
L 402.664743 125.240625 
L 419.155405 125.622478 
L 435.646068 126.245443 
L 452.13673 125.305814 
L 468.627393 123.727076 
L 485.118055 121.662253 
L 501.608718 119.435165 
L 518.099381 118.798469 
L 534.590043 121.849846 
L 551.080706 121.124612 
L 567.571368 119.516075 
L 584.062031 118.364682 
L 600.552693 118.294609 
L 617.043356 117.601854 
L 633.534018 113.725107 
L 650.024681 122.757397 
L 666.515344 127.270895 
L 683.006006 124.128035 
L 699.496669 125.320359 
L 715.987331 125.149244 
L 732.477994 126.360302 
L 748.968656 125.646134 
L 765.459319 125.463251 
L 781.949982 127.571939 
L 798.440644 125.36629 
L 814.931307 125.918435 
L 831.421969 123.068452 
L 847.912632 123.95916 
L 864.403294 124.905863 
L 880.893957 126.670077 
L 897.384619 125.216463 
L 913.875282 124.899157 
L 930.365945 126.024695 
L 946.856607 121.872155 
L 963.34727 113.084216 
L 979.837932 104.298437 
L 996.328595 109.234004 
L 1012.819257 114.718367 
L 1029.30992 118.002082 
L 1045.800582 126.774519 
L 1062.291245 114.524037 
L 1078.781908 96.142745 
L 1095.27257 93.807926 
L 1111.763233 79.446579 
L 1128.253895 62.329656 
L 1144.744558 61.672144 
L 1161.23522 70.476259 
L 1177.725883 51.37377 
L 1194.216545 46.2624 
" style="fill:none;stroke:#ff7f0e;stroke-linecap:square;stroke-width:1.5;"/>
   </g>
   <g id="patch_3">
    <path d="M 172.62 132.3456 
L 172.62 42.1632 
" style="fill:none;stroke:#000000;stroke-linecap:square;stroke-linejoin:miter;stroke-width:0.8;"/>
   </g>
   <g id="patch_4">
    <path d="M 1242.864 132.3456 
L 1242.864 42.1632 
" style="fill:none;stroke:#000000;stroke-linecap:square;stroke-linejoin:miter;stroke-width:0.8;"/>
   </g>
   <g id="patch_5">
    <path d="M 172.62 132.3456 
L 1242.864 132.3456 
" style="fill:none;stroke:#000000;stroke-linecap:square;stroke-linejoin:miter;stroke-width:0.8;"/>
   </g>
   <g id="patch_6">
    <path d="M 172.62 42.1632 
L 1242.864 42.1632 
" style="fill:none;stroke:#000000;stroke-linecap:square;stroke-linejoin:miter;stroke-width:0.8;"/>
   </g>
   <g id="legend_1">
    <g id="patch_7">
     <path d="M 179.62 79.376941 
L 297.326494 79.376941 
Q 299.326494 79.376941 299.326494 77.376941 
L 299.326494 49.1632 
Q 299.326494 47.1632 297.326494 47.1632 
L 179.62 47.1632 
Q 177.62 47.1632 177.62 49.1632 
L 177.62 77.376941 
Q 177.62 79.376941 179.62 79.376941 
z
" style="fill:#ffffff;opacity:0.8;stroke:#cccccc;stroke-linejoin:miter;"/>
    </g>
    <g id="line2d_13">
     <path d="M 181.62 55.261638 
L 201.62 55.261638 
" style="fill:none;stroke:#1f77b4;stroke-linecap:square;stroke-width:1.5;"/>
    </g>
    <g id="line2d_14"/>
    <g id="text_5">
     <!-- single scale features -->
     <g transform="translate(209.62 58.761638)scale(0.1 -0.1)">
      <defs>
       <path d="M 30.90625 42 
C 30.90625 43.796875 30.796875 43.890625 30.203125 43.890625 
C 29.796875 43.890625 29.703125 43.796875 28.5 42.296875 
C 28.203125 41.890625 27.296875 40.890625 27 40.5 
C 23.796875 43.890625 19.296875 44 17.59375 44 
C 6.5 44 2.5 38.1875 2.5 32.390625 
C 2.5 23.390625 12.703125 21.296875 15.59375 20.6875 
C 21.90625 19.390625 24.09375 19 26.203125 17.1875 
C 27.5 16 29.703125 13.796875 29.703125 10.1875 
C 29.703125 6 27.296875 0.59375 18.09375 0.59375 
C 9.40625 0.59375 6.296875 7.1875 4.5 16 
C 4.203125 17.390625 4.203125 17.5 3.40625 17.5 
C 2.59375 17.5 2.5 17.390625 2.5 15.390625 
L 2.5 1 
C 2.5 -0.8125 2.59375 -0.90625 3.203125 -0.90625 
C 3.703125 -0.90625 3.796875 -0.8125 4.296875 0 
C 4.90625 0.890625 6.40625 3.296875 7 4.296875 
C 9 1.59375 12.5 -1 18.09375 -1 
C 28 -1 33.296875 4.390625 33.296875 12.1875 
C 33.296875 17.296875 30.59375 20 29.296875 21.1875 
C 26.296875 24.296875 22.796875 25 18.59375 25.796875 
C 13.09375 27 6.09375 28.390625 6.09375 34.5 
C 6.09375 37.09375 7.5 42.59375 17.59375 42.59375 
C 28.296875 42.59375 28.90625 32.59375 29.09375 29.390625 
C 29.203125 28.890625 29.703125 28.796875 30 28.796875 
C 30.90625 28.796875 30.90625 29.09375 30.90625 30.796875 
z
" id="CMR17-115"/>
       <path d="M 11.09375 18.203125 
C 13 16.6875 16.296875 15 20.296875 15 
C 28.203125 15 35 21.234375 35 29.609375 
C 35 32.234375 34.203125 36.265625 31.203125 39.390625 
C 34 42.390625 38.09375 43.390625 40.40625 43.390625 
C 40.796875 43.390625 41.40625 43.390625 41.90625 43.09375 
C 41.5 42.984375 40.59375 42.59375 40.59375 40.984375 
C 40.59375 39.6875 41.5 38.796875 42.796875 38.796875 
C 44.296875 38.796875 45.09375 39.796875 45.09375 41.09375 
C 45.09375 42.984375 43.59375 45 40.40625 45 
C 36.40625 45 32.90625 43.09375 30.09375 40.484375 
C 27.09375 43.1875 23.5 44.1875 20.296875 44.1875 
C 12.40625 44.1875 5.59375 37.984375 5.59375 29.609375 
C 5.59375 23.859375 8.90625 20.21875 9.90625 19.21875 
C 6.90625 15.6875 6.90625 11.59375 6.90625 11.09375 
C 6.90625 8.5 7.90625 4.6875 11.296875 2.59375 
C 6.09375 1.28125 2 -2.875 2 -8.078125 
C 2 -15.5625 11.5 -21 22.90625 -21 
C 33.90625 -21 43.796875 -15.765625 43.796875 -7.96875 
C 43.796875 6 29 6 21.296875 6 
C 19 6 14.90625 6 14.40625 6.09375 
C 11.296875 6.59375 9.203125 9.390625 9.203125 12.890625 
C 9.203125 13.796875 9.203125 16 11.09375 18.203125 
z
M 20.296875 16.6875 
C 11.5 16.6875 11.5 27.59375 11.5 29.609375 
C 11.5 31.625 11.5 42.484375 20.296875 42.484375 
C 29.09375 42.484375 29.09375 31.625 29.09375 29.609375 
C 29.09375 27.59375 29.09375 16.6875 20.296875 16.6875 
z
M 22.90625 -19.3125 
C 12.90625 -19.3125 6 -13.796875 6 -8.078125 
C 6 -4.859375 7.703125 -1.84375 9.90625 -0.171875 
C 12.40625 1.59375 13.40625 1.59375 20.203125 1.59375 
C 28.40625 1.59375 39.796875 1.59375 39.796875 -8.078125 
C 39.796875 -13.796875 32.90625 -19.3125 22.90625 -19.3125 
z
" id="CMR17-103"/>
       <path d="M 15.296875 69 
L 3.40625 67.890625 
L 3.40625 65.296875 
C 9.296875 65.296875 10.203125 64.703125 10.203125 59.921875 
L 10.203125 6.859375 
C 10.203125 3.09375 9.796875 2.59375 3.40625 2.59375 
L 3.40625 0 
C 5.796875 0.1875 10.203125 0.1875 12.703125 0.1875 
C 15.296875 0.1875 19.703125 0.1875 22.09375 0 
L 22.09375 2.59375 
C 15.703125 2.59375 15.296875 2.984375 15.296875 6.859375 
z
" id="CMR17-108"/>
       <path d="M 34.90625 35 
C 33 35 30.203125 35 30.203125 31.484375 
C 30.203125 28.6875 32.5 27.890625 33.796875 27.890625 
C 34.5 27.890625 37.40625 28.1875 37.40625 31.6875 
C 37.40625 38.6875 30.59375 44 22.90625 44 
C 12.296875 44 3.296875 34.390625 3.296875 21.546875 
C 3.296875 8.140625 12.703125 -1 22.90625 -1 
C 35.296875 -1 38.40625 10.5625 38.40625 11.671875 
C 38.40625 12.078125 38.296875 12.375 37.59375 12.375 
C 36.90625 12.375 36.796875 12.28125 36.40625 10.96875 
C 33.796875 2.8125 28.09375 0.796875 23.796875 0.796875 
C 17.40625 0.796875 9.703125 6.734375 9.703125 21.640625 
C 9.703125 36.84375 17.09375 42.1875 23 42.1875 
C 26.90625 42.1875 32.703125 40.34375 34.90625 35 
z
" id="CMR17-99"/>
       <path d="M 36 25.875 
C 36 32 36 35.546875 31.796875 39.59375 
C 28.09375 42.984375 23.796875 44 20.40625 44 
C 12.5 44 6.796875 37.625 6.796875 30.890625 
C 6.796875 27.1875 9.796875 27 10.40625 27 
C 11.703125 27 14 27.796875 14 30.59375 
C 14 33.09375 12.09375 34.1875 10.40625 34.1875 
C 10 34.1875 9.5 34.09375 9.203125 34 
C 11.296875 40.53125 16.703125 42.390625 20.203125 42.390625 
C 25.203125 42.390625 30.703125 37.828125 30.703125 29.296875 
L 30.703125 25.5 
C 24.796875 25.296875 17.703125 24.5 12.09375 21.453125 
C 5.796875 17.921875 4 12.84375 4 9 
C 4 1.203125 13 -1 18.296875 -1 
C 23.796875 -1 28.90625 2.109375 31.09375 7.890625 
C 31.296875 3.421875 34.09375 -0.609375 38.5 -0.609375 
C 40.59375 -0.609375 45.90625 0.796875 45.90625 8.796875 
L 45.90625 14.46875 
L 44.09375 14.46875 
L 44.09375 8.703125 
C 44.09375 2.515625 41.40625 1.703125 40.09375 1.703125 
C 36 1.703125 36 6.96875 36 11.4375 
z
M 30.703125 13.859375 
C 30.703125 5.046875 24.5 0.59375 19 0.59375 
C 14 0.59375 10.09375 4.34375 10.09375 9 
C 10.09375 12.046875 11.40625 17.40625 17.203125 20.65625 
C 22 23.390625 27.5 23.796875 30.703125 24 
z
" id="CMR17-97"/>
       <path d="M 15.296875 40.390625 
L 26.703125 40.390625 
L 26.703125 43 
L 15.09375 43 
L 15.09375 55.296875 
C 15.09375 63.6875 19.296875 68.390625 23.59375 68.390625 
C 24.90625 68.390625 26.40625 68.171875 27.40625 67.796875 
C 26.59375 67.59375 24.5 66.890625 24.5 64.390625 
C 24.5 61.796875 26.5 61 27.90625 61 
C 29.296875 61 31.296875 61.796875 31.296875 64.390625 
C 31.296875 68.015625 27.703125 70 23.703125 70 
C 18 70 10.203125 65.796875 10.203125 55.09375 
L 10.203125 43 
L 2.203125 43 
L 2.203125 40.390625 
L 10.203125 40.390625 
L 10.203125 6.890625 
C 10.203125 3.09375 9.796875 2.59375 3.40625 2.59375 
L 3.40625 0 
C 5.796875 0.1875 10.40625 0.1875 13 0.1875 
C 15.90625 0.1875 21 0.1875 23.703125 0 
L 23.703125 2.59375 
C 16.5 2.59375 15.296875 2.59375 15.296875 7.09375 
z
" id="CMR17-102"/>
       <path d="M 15.09375 40.390625 
L 29.09375 40.390625 
L 29.09375 43 
L 15.09375 43 
L 15.09375 62 
L 13.296875 62 
C 13.09375 51.4375 9.59375 42.1875 1.09375 41.984375 
L 1.09375 40.390625 
L 9.796875 40.390625 
L 9.796875 12.15625 
C 9.796875 10.234375 9.796875 -1 21.40625 -1 
C 27.296875 -1 30.703125 4.8125 30.703125 12.25 
L 30.703125 17.984375 
L 28.90625 17.984375 
L 28.90625 12.34375 
C 28.90625 5.421875 26.203125 0.796875 22 0.796875 
C 19.09375 0.796875 15.09375 2.796875 15.09375 11.953125 
z
" id="CMR17-116"/>
       <path d="M 29.40625 42.890625 
L 29.40625 40.296875 
C 35.296875 40.296875 36.203125 39.6875 36.203125 34.828125 
L 36.203125 16.453125 
C 36.203125 7.96875 31.703125 0.59375 24.296875 0.59375 
C 16.09375 0.59375 15.40625 5.546875 15.40625 10.796875 
L 15.40625 44 
L 3.296875 42.890625 
L 3.296875 40.296875 
C 7.296875 40.296875 10 40.296875 10.09375 36.25 
L 10.09375 16.859375 
C 10.09375 10.09375 10.09375 5.75 12.703125 2.921875 
C 14 1.609375 16.5 -1 23.703125 -1 
C 32.203125 -1 35.5 6.25 36.296875 8.375 
L 36.40625 8.375 
L 36.40625 -1 
L 48.296875 -0.203125 
L 48.296875 2.40625 
C 42.40625 2.40625 41.5 3.015625 41.5 7.859375 
L 41.5 44 
z
" id="CMR17-117"/>
      </defs>
      <use transform="scale(0.996264)" xlink:href="#CMR17-115"/>
      <use transform="translate(35.801338 0)scale(0.996264)" xlink:href="#CMR17-105"/>
      <use transform="translate(60.672396 0)scale(0.996264)" xlink:href="#CMR17-110"/>
      <use transform="translate(111.567766 0)scale(0.996264)" xlink:href="#CMR17-103"/>
      <use transform="translate(157.258243 0)scale(0.996264)" xlink:href="#CMR17-108"/>
      <use transform="translate(182.129301 0)scale(0.996264)" xlink:href="#CMR17-101"/>
      <use transform="translate(252.690928 0)scale(0.996264)" xlink:href="#CMR17-115"/>
      <use transform="translate(288.492266 0)scale(0.996264)" xlink:href="#CMR17-99"/>
      <use transform="translate(328.977926 0)scale(0.996264)" xlink:href="#CMR17-97"/>
      <use transform="translate(374.668404 0)scale(0.996264)" xlink:href="#CMR17-108"/>
      <use transform="translate(399.539462 0)scale(0.996264)" xlink:href="#CMR17-101"/>
      <use transform="translate(470.101089 0)scale(0.996264)" xlink:href="#CMR17-102"/>
      <use transform="translate(497.574601 0)scale(0.996264)" xlink:href="#CMR17-101"/>
      <use transform="translate(538.060262 0)scale(0.996264)" xlink:href="#CMR17-97"/>
      <use transform="translate(583.750739 0)scale(0.996264)" xlink:href="#CMR17-116"/>
      <use transform="translate(619.031507 0)scale(0.996264)" xlink:href="#CMR17-117"/>
      <use transform="translate(669.926876 0)scale(0.996264)" xlink:href="#CMR17-114"/>
      <use transform="translate(705.207644 0)scale(0.996264)" xlink:href="#CMR17-101"/>
      <use transform="translate(745.693305 0)scale(0.996264)" xlink:href="#CMR17-115"/>
     </g>
    </g>
    <g id="line2d_15">
     <path d="M 181.62 69.939763 
L 201.62 69.939763 
" style="fill:none;stroke:#ff7f0e;stroke-linecap:square;stroke-width:1.5;"/>
    </g>
    <g id="line2d_16"/>
    <g id="text_6">
     <!-- multi scale features -->
     <g transform="translate(209.62 73.439763)scale(0.1 -0.1)">
      <use transform="scale(0.996264)" xlink:href="#CMR17-109"/>
      <use transform="translate(74.317136 0)scale(0.996264)" xlink:href="#CMR17-117"/>
      <use transform="translate(125.212506 0)scale(0.996264)" xlink:href="#CMR17-108"/>
      <use transform="translate(150.083564 0)scale(0.996264)" xlink:href="#CMR17-116"/>
      <use transform="translate(185.364332 0)scale(0.996264)" xlink:href="#CMR17-105"/>
      <use transform="translate(240.311357 0)scale(0.996264)" xlink:href="#CMR17-115"/>
      <use transform="translate(276.112694 0)scale(0.996264)" xlink:href="#CMR17-99"/>
      <use transform="translate(316.598355 0)scale(0.996264)" xlink:href="#CMR17-97"/>
      <use transform="translate(362.288832 0)scale(0.996264)" xlink:href="#CMR17-108"/>
      <use transform="translate(387.159891 0)scale(0.996264)" xlink:href="#CMR17-101"/>
      <use transform="translate(457.721517 0)scale(0.996264)" xlink:href="#CMR17-102"/>
      <use transform="translate(485.19503 0)scale(0.996264)" xlink:href="#CMR17-101"/>
      <use transform="translate(525.68069 0)scale(0.996264)" xlink:href="#CMR17-97"/>
      <use transform="translate(571.371167 0)scale(0.996264)" xlink:href="#CMR17-116"/>
      <use transform="translate(606.651935 0)scale(0.996264)" xlink:href="#CMR17-117"/>
      <use transform="translate(657.547305 0)scale(0.996264)" xlink:href="#CMR17-114"/>
      <use transform="translate(692.828073 0)scale(0.996264)" xlink:href="#CMR17-101"/>
      <use transform="translate(733.313733 0)scale(0.996264)" xlink:href="#CMR17-115"/>
     </g>
    </g>
   </g>
  </g>
  <g id="axes_2">
   <g id="patch_8">
    <path d="M 172.62 222.528 
L 1242.864 222.528 
L 1242.864 132.3456 
L 172.62 132.3456 
z
" style="fill:#ffffff;"/>
   </g>
   <g id="matplotlib.axis_3">
    <g id="xtick_8">
     <g id="line2d_17">
      <g>
       <use style="stroke:#000000;stroke-width:0.8;" x="188.286129" xlink:href="#maaee3fa9e7" y="222.528"/>
      </g>
     </g>
    </g>
    <g id="xtick_9">
     <g id="line2d_18">
      <g>
       <use style="stroke:#000000;stroke-width:0.8;" x="353.192755" xlink:href="#maaee3fa9e7" y="222.528"/>
      </g>
     </g>
    </g>
    <g id="xtick_10">
     <g id="line2d_19">
      <g>
       <use style="stroke:#000000;stroke-width:0.8;" x="518.099381" xlink:href="#maaee3fa9e7" y="222.528"/>
      </g>
     </g>
    </g>
    <g id="xtick_11">
     <g id="line2d_20">
      <g>
       <use style="stroke:#000000;stroke-width:0.8;" x="683.006006" xlink:href="#maaee3fa9e7" y="222.528"/>
      </g>
     </g>
    </g>
    <g id="xtick_12">
     <g id="line2d_21">
      <g>
       <use style="stroke:#000000;stroke-width:0.8;" x="847.912632" xlink:href="#maaee3fa9e7" y="222.528"/>
      </g>
     </g>
    </g>
    <g id="xtick_13">
     <g id="line2d_22">
      <g>
       <use style="stroke:#000000;stroke-width:0.8;" x="1012.819257" xlink:href="#maaee3fa9e7" y="222.528"/>
      </g>
     </g>
    </g>
    <g id="xtick_14">
     <g id="line2d_23">
      <g>
       <use style="stroke:#000000;stroke-width:0.8;" x="1177.725883" xlink:href="#maaee3fa9e7" y="222.528"/>
      </g>
     </g>
    </g>
   </g>
   <g id="matplotlib.axis_4">
    <g id="ytick_4">
     <g id="line2d_24">
      <g>
       <use style="stroke:#000000;stroke-width:0.8;" x="172.62" xlink:href="#m5fb4aa6650" y="218.439298"/>
      </g>
     </g>
     <g id="text_7">
      <!-- $\mathdefault{0}$ -->
      <g transform="translate(160.638665 221.898547)scale(0.1 -0.1)">
       <use transform="scale(0.996264)" xlink:href="#CMR17-48"/>
      </g>
     </g>
    </g>
    <g id="ytick_5">
     <g id="line2d_25">
      <g>
       <use style="stroke:#000000;stroke-width:0.8;" x="172.62" xlink:href="#m5fb4aa6650" y="179.252667"/>
      </g>
     </g>
     <g id="text_8">
      <!-- $\mathdefault{2}$ -->
      <g transform="translate(160.638665 182.711916)scale(0.1 -0.1)">
       <use transform="scale(0.996264)" xlink:href="#CMR17-50"/>
      </g>
     </g>
    </g>
    <g id="ytick_6">
     <g id="line2d_26">
      <g>
       <use style="stroke:#000000;stroke-width:0.8;" x="172.62" xlink:href="#m5fb4aa6650" y="140.066037"/>
      </g>
     </g>
     <g id="text_9">
      <!-- $\mathdefault{4}$ -->
      <g transform="translate(160.638665 143.525286)scale(0.1 -0.1)">
       <defs>
        <path d="M 33.59375 64.796875 
C 33.59375 66.890625 33.5 67 31.703125 67 
L 2 19.59375 
L 2 17 
L 27.796875 17 
L 27.796875 7.1875 
C 27.796875 3.59375 27.59375 2.59375 20.59375 2.59375 
L 18.703125 2.59375 
L 18.703125 0 
C 21.90625 0.1875 27.296875 0.1875 30.703125 0.1875 
C 34.09375 0.1875 39.5 0.1875 42.703125 0 
L 42.703125 2.59375 
L 40.796875 2.59375 
C 33.796875 2.59375 33.59375 3.59375 33.59375 7.1875 
L 33.59375 17 
L 43.796875 17 
L 43.796875 19.59375 
L 33.59375 19.59375 
z
M 28.09375 58.171875 
L 28.09375 19.59375 
L 4 19.59375 
z
" id="CMR17-52"/>
       </defs>
       <use transform="scale(0.996264)" xlink:href="#CMR17-52"/>
      </g>
     </g>
    </g>
    <g id="text_10">
     <!-- error in y [m] -->
     <g transform="translate(154.148005 206.674434)rotate(-90)scale(0.1 -0.1)">
      <defs>
       <path d="M 39 34.109375 
C 41.5 40.296875 46 40.390625 47.40625 40.390625 
L 47.40625 43 
C 45.5 42.890625 43 42.796875 41.09375 42.796875 
C 39 42.796875 35.703125 42.796875 33.703125 43 
L 33.703125 40.390625 
C 37.5 40.09375 37.59375 37.25 37.59375 36.4375 
C 37.59375 35.4375 37.40625 34.921875 36.90625 33.71875 
L 26 6.390625 
L 14.09375 35.9375 
C 13.59375 37.15625 13.59375 37.859375 13.59375 37.96875 
C 13.59375 40.1875 15.90625 40.390625 18.296875 40.390625 
L 18.296875 43 
C 15.90625 42.796875 11.59375 42.796875 9.09375 42.796875 
C 6.40625 42.796875 3.203125 42.796875 1 43 
L 1 40.390625 
C 6.40625 40.390625 7 39.890625 8.296875 36.640625 
L 23.203125 -0.484375 
C 18.703125 -12.421875 16.09375 -19.40625 9.796875 -19.40625 
C 8.703125 -19.40625 6.203125 -19.109375 4.40625 -17.28125 
C 6.703125 -17.078125 7.703125 -15.65625 7.703125 -13.9375 
C 7.703125 -12.21875 6.5 -10.703125 4.5 -10.703125 
C 2.296875 -10.703125 1.203125 -12.21875 1.203125 -14.046875 
C 1.203125 -18.09375 5.296875 -21 9.796875 -21 
C 15.59375 -21 19.203125 -15.359375 21.203125 -10.296875 
z
" id="CMR17-121"/>
      </defs>
      <use transform="scale(0.996264)" xlink:href="#CMR17-101"/>
      <use transform="translate(40.48566 0)scale(0.996264)" xlink:href="#CMR17-114"/>
      <use transform="translate(75.766428 0)scale(0.996264)" xlink:href="#CMR17-114"/>
      <use transform="translate(111.047196 0)scale(0.996264)" xlink:href="#CMR17-111"/>
      <use transform="translate(156.737673 0)scale(0.996264)" xlink:href="#CMR17-114"/>
      <use transform="translate(222.094407 0)scale(0.996264)" xlink:href="#CMR17-105"/>
      <use transform="translate(246.965466 0)scale(0.996264)" xlink:href="#CMR17-110"/>
      <use transform="translate(327.936802 0)scale(0.996264)" xlink:href="#CMR17-121"/>
      <use transform="translate(406.305684 0)scale(0.996264)" xlink:href="#CMR17-91"/>
      <use transform="translate(431.176743 0)scale(0.996264)" xlink:href="#CMR17-109"/>
      <use transform="translate(508.096332 0)scale(0.996264)" xlink:href="#CMR17-93"/>
     </g>
    </g>
   </g>
   <g id="line2d_27">
    <path clip-path="url(#pd3a5326775)" d="M 221.267455 218.335756 
L 237.758117 218.254308 
L 254.24878 217.976222 
L 270.739442 218.121208 
L 287.230105 218.18262 
L 303.720767 218.40789 
L 320.21143 218.065448 
L 336.702092 218.411253 
L 353.192755 218.247656 
L 369.683418 218.258174 
L 386.17408 217.706966 
L 402.664743 217.227373 
L 419.155405 217.322114 
L 435.646068 217.15911 
L 452.13673 216.882305 
L 468.627393 216.741224 
L 485.118055 215.792848 
L 501.608718 215.831996 
L 518.099381 216.446697 
L 534.590043 216.252037 
L 551.080706 216.567188 
L 567.571368 216.846787 
L 584.062031 215.374943 
L 600.552693 214.849352 
L 617.043356 214.541874 
L 633.534018 213.841844 
L 650.024681 217.441532 
L 666.515344 217.14417 
L 683.006006 216.228565 
L 699.496669 217.917506 
L 715.987331 218.333481 
L 732.477994 217.720321 
L 748.968656 217.946287 
L 765.459319 217.767776 
L 781.949982 218.168589 
L 798.440644 216.998221 
L 814.931307 217.610363 
L 831.421969 217.319134 
L 847.912632 217.903319 
L 864.403294 217.06931 
L 880.893957 215.960528 
L 897.384619 216.738377 
L 913.875282 217.836905 
L 930.365945 217.093707 
L 946.856607 216.002066 
L 963.34727 208.933072 
L 979.837932 205.381117 
L 996.328595 204.540701 
L 1012.819257 195.188106 
L 1029.30992 194.074422 
L 1045.800582 192.965441 
L 1062.291245 191.85979 
L 1078.781908 190.7512 
L 1095.27257 189.652799 
L 1111.763233 188.551263 
L 1128.253895 187.459327 
L 1144.744558 158.785098 
L 1161.23522 150.500653 
L 1177.725883 139.167683 
L 1194.216545 138.031467 
" style="fill:none;stroke:#1f77b4;stroke-linecap:square;stroke-width:1.5;"/>
   </g>
   <g id="line2d_28">
    <path clip-path="url(#pd3a5326775)" d="M 221.267455 218.3323 
L 237.758117 218.17346 
L 254.24878 218.28298 
L 270.739442 217.809245 
L 287.230105 217.82879 
L 303.720767 217.997032 
L 320.21143 218.4288 
L 336.702092 218.113798 
L 353.192755 218.149144 
L 369.683418 217.848001 
L 386.17408 217.256318 
L 402.664743 216.655223 
L 419.155405 216.888724 
L 435.646068 217.021481 
L 452.13673 216.723492 
L 468.627393 216.344145 
L 485.118055 215.735322 
L 501.608718 214.865379 
L 518.099381 214.480253 
L 534.590043 216.300668 
L 551.080706 215.916737 
L 567.571368 214.838066 
L 584.062031 214.011111 
L 600.552693 213.861261 
L 617.043356 213.77023 
L 633.534018 212.713485 
L 650.024681 215.815537 
L 666.515344 216.476753 
L 683.006006 215.833524 
L 699.496669 216.073679 
L 715.987331 216.878441 
L 732.477994 216.641417 
L 748.968656 216.870943 
L 765.459319 217.428365 
L 781.949982 215.951515 
L 798.440644 214.958114 
L 814.931307 216.660789 
L 831.421969 217.72008 
L 847.912632 217.271244 
L 864.403294 216.724771 
L 880.893957 216.054811 
L 897.384619 216.488617 
L 913.875282 216.936087 
L 930.365945 215.405155 
L 946.856607 214.441419 
L 963.34727 213.336513 
L 979.837932 212.234879 
L 996.328595 207.557562 
L 1012.819257 202.555585 
L 1029.30992 192.678203 
L 1045.800582 191.5606 
L 1062.291245 184.589298 
L 1078.781908 176.45964 
L 1095.27257 172.171447 
L 1111.763233 163.893075 
L 1128.253895 156.277938 
L 1144.744558 153.517827 
L 1161.23522 152.384746 
L 1177.725883 142.134111 
L 1194.216545 136.4448 
" style="fill:none;stroke:#ff7f0e;stroke-linecap:square;stroke-width:1.5;"/>
   </g>
   <g id="patch_9">
    <path d="M 172.62 222.528 
L 172.62 132.3456 
" style="fill:none;stroke:#000000;stroke-linecap:square;stroke-linejoin:miter;stroke-width:0.8;"/>
   </g>
   <g id="patch_10">
    <path d="M 1242.864 222.528 
L 1242.864 132.3456 
" style="fill:none;stroke:#000000;stroke-linecap:square;stroke-linejoin:miter;stroke-width:0.8;"/>
   </g>
   <g id="patch_11">
    <path d="M 172.62 222.528 
L 1242.864 222.528 
" style="fill:none;stroke:#000000;stroke-linecap:square;stroke-linejoin:miter;stroke-width:0.8;"/>
   </g>
   <g id="patch_12">
    <path d="M 172.62 132.3456 
L 1242.864 132.3456 
" style="fill:none;stroke:#000000;stroke-linecap:square;stroke-linejoin:miter;stroke-width:0.8;"/>
   </g>
   <g id="legend_2">
    <g id="patch_13">
     <path d="M 179.62 169.559341 
L 297.326494 169.559341 
Q 299.326494 169.559341 299.326494 167.559341 
L 299.326494 139.3456 
Q 299.326494 137.3456 297.326494 137.3456 
L 179.62 137.3456 
Q 177.62 137.3456 177.62 139.3456 
L 177.62 167.559341 
Q 177.62 169.559341 179.62 169.559341 
z
" style="fill:#ffffff;opacity:0.8;stroke:#cccccc;stroke-linejoin:miter;"/>
    </g>
    <g id="line2d_29">
     <path d="M 181.62 145.444038 
L 201.62 145.444038 
" style="fill:none;stroke:#1f77b4;stroke-linecap:square;stroke-width:1.5;"/>
    </g>
    <g id="line2d_30"/>
    <g id="text_11">
     <!-- single scale features -->
     <g transform="translate(209.62 148.944038)scale(0.1 -0.1)">
      <use transform="scale(0.996264)" xlink:href="#CMR17-115"/>
      <use transform="translate(35.801338 0)scale(0.996264)" xlink:href="#CMR17-105"/>
      <use transform="translate(60.672396 0)scale(0.996264)" xlink:href="#CMR17-110"/>
      <use transform="translate(111.567766 0)scale(0.996264)" xlink:href="#CMR17-103"/>
      <use transform="translate(157.258243 0)scale(0.996264)" xlink:href="#CMR17-108"/>
      <use transform="translate(182.129301 0)scale(0.996264)" xlink:href="#CMR17-101"/>
      <use transform="translate(252.690928 0)scale(0.996264)" xlink:href="#CMR17-115"/>
      <use transform="translate(288.492266 0)scale(0.996264)" xlink:href="#CMR17-99"/>
      <use transform="translate(328.977926 0)scale(0.996264)" xlink:href="#CMR17-97"/>
      <use transform="translate(374.668404 0)scale(0.996264)" xlink:href="#CMR17-108"/>
      <use transform="translate(399.539462 0)scale(0.996264)" xlink:href="#CMR17-101"/>
      <use transform="translate(470.101089 0)scale(0.996264)" xlink:href="#CMR17-102"/>
      <use transform="translate(497.574601 0)scale(0.996264)" xlink:href="#CMR17-101"/>
      <use transform="translate(538.060262 0)scale(0.996264)" xlink:href="#CMR17-97"/>
      <use transform="translate(583.750739 0)scale(0.996264)" xlink:href="#CMR17-116"/>
      <use transform="translate(619.031507 0)scale(0.996264)" xlink:href="#CMR17-117"/>
      <use transform="translate(669.926876 0)scale(0.996264)" xlink:href="#CMR17-114"/>
      <use transform="translate(705.207644 0)scale(0.996264)" xlink:href="#CMR17-101"/>
      <use transform="translate(745.693305 0)scale(0.996264)" xlink:href="#CMR17-115"/>
     </g>
    </g>
    <g id="line2d_31">
     <path d="M 181.62 160.122163 
L 201.62 160.122163 
" style="fill:none;stroke:#ff7f0e;stroke-linecap:square;stroke-width:1.5;"/>
    </g>
    <g id="line2d_32"/>
    <g id="text_12">
     <!-- multi scale features -->
     <g transform="translate(209.62 163.622163)scale(0.1 -0.1)">
      <use transform="scale(0.996264)" xlink:href="#CMR17-109"/>
      <use transform="translate(74.317136 0)scale(0.996264)" xlink:href="#CMR17-117"/>
      <use transform="translate(125.212506 0)scale(0.996264)" xlink:href="#CMR17-108"/>
      <use transform="translate(150.083564 0)scale(0.996264)" xlink:href="#CMR17-116"/>
      <use transform="translate(185.364332 0)scale(0.996264)" xlink:href="#CMR17-105"/>
      <use transform="translate(240.311357 0)scale(0.996264)" xlink:href="#CMR17-115"/>
      <use transform="translate(276.112694 0)scale(0.996264)" xlink:href="#CMR17-99"/>
      <use transform="translate(316.598355 0)scale(0.996264)" xlink:href="#CMR17-97"/>
      <use transform="translate(362.288832 0)scale(0.996264)" xlink:href="#CMR17-108"/>
      <use transform="translate(387.159891 0)scale(0.996264)" xlink:href="#CMR17-101"/>
      <use transform="translate(457.721517 0)scale(0.996264)" xlink:href="#CMR17-102"/>
      <use transform="translate(485.19503 0)scale(0.996264)" xlink:href="#CMR17-101"/>
      <use transform="translate(525.68069 0)scale(0.996264)" xlink:href="#CMR17-97"/>
      <use transform="translate(571.371167 0)scale(0.996264)" xlink:href="#CMR17-116"/>
      <use transform="translate(606.651935 0)scale(0.996264)" xlink:href="#CMR17-117"/>
      <use transform="translate(657.547305 0)scale(0.996264)" xlink:href="#CMR17-114"/>
      <use transform="translate(692.828073 0)scale(0.996264)" xlink:href="#CMR17-101"/>
      <use transform="translate(733.313733 0)scale(0.996264)" xlink:href="#CMR17-115"/>
     </g>
    </g>
   </g>
  </g>
  <g id="axes_3">
   <g id="patch_14">
    <path d="M 172.62 312.7104 
L 1242.864 312.7104 
L 1242.864 222.528 
L 172.62 222.528 
z
" style="fill:#ffffff;"/>
   </g>
   <g id="matplotlib.axis_5">
    <g id="xtick_15">
     <g id="line2d_33">
      <g>
       <use style="stroke:#000000;stroke-width:0.8;" x="188.286129" xlink:href="#maaee3fa9e7" y="312.7104"/>
      </g>
     </g>
     <g id="text_13">
      <!-- $\mathdefault{0}$ -->
      <g transform="translate(185.795462 326.628898)scale(0.1 -0.1)">
       <use transform="scale(0.996264)" xlink:href="#CMR17-48"/>
      </g>
     </g>
    </g>
    <g id="xtick_16">
     <g id="line2d_34">
      <g>
       <use style="stroke:#000000;stroke-width:0.8;" x="353.192755" xlink:href="#maaee3fa9e7" y="312.7104"/>
      </g>
     </g>
     <g id="text_14">
      <!-- $\mathdefault{10}$ -->
      <g transform="translate(348.21142 326.628898)scale(0.1 -0.1)">
       <use transform="scale(0.996264)" xlink:href="#CMR17-49"/>
       <use transform="translate(45.690477 0)scale(0.996264)" xlink:href="#CMR17-48"/>
      </g>
     </g>
    </g>
    <g id="xtick_17">
     <g id="line2d_35">
      <g>
       <use style="stroke:#000000;stroke-width:0.8;" x="518.099381" xlink:href="#maaee3fa9e7" y="312.7104"/>
      </g>
     </g>
     <g id="text_15">
      <!-- $\mathdefault{20}$ -->
      <g transform="translate(513.118045 326.628898)scale(0.1 -0.1)">
       <use transform="scale(0.996264)" xlink:href="#CMR17-50"/>
       <use transform="translate(45.690477 0)scale(0.996264)" xlink:href="#CMR17-48"/>
      </g>
     </g>
    </g>
    <g id="xtick_18">
     <g id="line2d_36">
      <g>
       <use style="stroke:#000000;stroke-width:0.8;" x="683.006006" xlink:href="#maaee3fa9e7" y="312.7104"/>
      </g>
     </g>
     <g id="text_16">
      <!-- $\mathdefault{30}$ -->
      <g transform="translate(678.024671 326.628898)scale(0.1 -0.1)">
       <defs>
        <path d="M 22.09375 34 
C 31 34 34.90625 26.140625 34.90625 17.09375 
C 34.90625 5.03125 28.5 0.390625 22.703125 0.390625 
C 17.40625 0.390625 8.796875 3.015625 6.09375 10.796875 
C 6.59375 10.59375 7.09375 10.59375 7.59375 10.59375 
C 10 10.59375 11.796875 12.1875 11.796875 14.796875 
C 11.796875 17.6875 9.59375 19 7.59375 19 
C 5.90625 19 3.296875 18.1875 3.296875 14.484375 
C 3.296875 5.234375 12.296875 -2 22.90625 -2 
C 34 -2 42.5 6.75 42.5 16.984375 
C 42.5 26.84375 34.5 34 25 35.09375 
C 32.59375 36.671875 39.90625 43.375 39.90625 52.390625 
C 39.90625 60.25 32 66 23 66 
C 13.90625 66 5.90625 60.34375 5.90625 52.296875 
C 5.90625 48.796875 8.5 48.1875 9.796875 48.1875 
C 11.90625 48.1875 13.703125 49.484375 13.703125 52.09375 
C 13.703125 54.6875 11.90625 56 9.796875 56 
C 9.40625 56 8.90625 56 8.5 55.796875 
C 11.40625 62.484375 19.296875 63.6875 22.796875 63.6875 
C 26.296875 63.6875 32.90625 61.96875 32.90625 52.296875 
C 32.90625 49.484375 32.5 44.546875 29.09375 40.21875 
C 26.09375 36.390625 22.703125 36.1875 19.40625 35.890625 
C 18.90625 35.890625 16.59375 35.6875 16.203125 35.6875 
C 15.5 35.59375 15.09375 35.5 15.09375 34.796875 
C 15.09375 34.09375 15.203125 34 17.203125 34 
z
" id="CMR17-51"/>
       </defs>
       <use transform="scale(0.996264)" xlink:href="#CMR17-51"/>
       <use transform="translate(45.690477 0)scale(0.996264)" xlink:href="#CMR17-48"/>
      </g>
     </g>
    </g>
    <g id="xtick_19">
     <g id="line2d_37">
      <g>
       <use style="stroke:#000000;stroke-width:0.8;" x="847.912632" xlink:href="#maaee3fa9e7" y="312.7104"/>
      </g>
     </g>
     <g id="text_17">
      <!-- $\mathdefault{40}$ -->
      <g transform="translate(842.931296 326.628898)scale(0.1 -0.1)">
       <use transform="scale(0.996264)" xlink:href="#CMR17-52"/>
       <use transform="translate(45.690477 0)scale(0.996264)" xlink:href="#CMR17-48"/>
      </g>
     </g>
    </g>
    <g id="xtick_20">
     <g id="line2d_38">
      <g>
       <use style="stroke:#000000;stroke-width:0.8;" x="1012.819257" xlink:href="#maaee3fa9e7" y="312.7104"/>
      </g>
     </g>
     <g id="text_18">
      <!-- $\mathdefault{50}$ -->
      <g transform="translate(1007.837922 326.628898)scale(0.1 -0.1)">
       <defs>
        <path d="M 11.40625 58.59375 
C 12.40625 58.1875 16.5 56.890625 20.703125 56.890625 
C 30 56.890625 35.09375 61.890625 38 64.6875 
C 38 65.484375 38 66 37.40625 66 
C 37.296875 66 37.09375 66 36.296875 65.59375 
C 32.796875 64.09375 28.703125 63 23.703125 63 
C 20.703125 63 16.203125 63.359375 11.296875 65.484375 
C 10.203125 66 10 66 9.90625 66 
C 9.40625 66 9.296875 65.890625 9.296875 63.90625 
L 9.296875 34.859375 
C 9.296875 33.015625 9.296875 32.5 10.296875 32.5 
C 10.796875 32.5 11 32.703125 11.5 33.421875 
C 14.703125 38.046875 19.09375 40 24.09375 40 
C 27.59375 40 35.09375 37.734375 35.09375 20.203125 
C 35.09375 16.984375 35.09375 11.1875 32.09375 6.59375 
C 29.59375 2.484375 25.703125 0.390625 21.40625 0.390625 
C 14.796875 0.390625 8.09375 4.984375 6.296875 12.6875 
C 6.703125 12.59375 7.5 12.390625 7.90625 12.390625 
C 9.203125 12.390625 11.703125 13.09375 11.703125 16.1875 
C 11.703125 18.890625 9.796875 20 7.90625 20 
C 5.59375 20 4.09375 18.59375 4.09375 15.796875 
C 4.09375 7.09375 11 -2 21.59375 -2 
C 31.90625 -2 41.703125 6.890625 41.703125 19.796875 
C 41.703125 32.09375 33.90625 41.59375 24.203125 41.59375 
C 19.09375 41.59375 14.796875 39.6875 11.40625 36 
z
" id="CMR17-53"/>
       </defs>
       <use transform="scale(0.996264)" xlink:href="#CMR17-53"/>
       <use transform="translate(45.690477 0)scale(0.996264)" xlink:href="#CMR17-48"/>
      </g>
     </g>
    </g>
    <g id="xtick_21">
     <g id="line2d_39">
      <g>
       <use style="stroke:#000000;stroke-width:0.8;" x="1177.725883" xlink:href="#maaee3fa9e7" y="312.7104"/>
      </g>
     </g>
     <g id="text_19">
      <!-- $\mathdefault{60}$ -->
      <g transform="translate(1172.744548 326.628898)scale(0.1 -0.1)">
       <defs>
        <path d="M 10.59375 34.34375 
C 10.59375 58 21.796875 63.6875 28.296875 63.6875 
C 30.40625 63.6875 35.5 63.265625 37.5 59.09375 
C 35.90625 59.09375 32.90625 59.09375 32.90625 55.59375 
C 32.90625 52.890625 35.09375 52 36.5 52 
C 37.40625 52 40.09375 52.390625 40.09375 55.796875 
C 40.09375 62.296875 35.09375 66 28.203125 66 
C 16.296875 66 3.796875 53.296875 3.796875 31.421875 
C 3.796875 4.015625 15.09375 -2 23.09375 -2 
C 32.796875 -2 42 6.734375 42 20.234375 
C 42 32.828125 33.90625 42 23.703125 42 
C 17.59375 42 13.09375 37.96875 10.59375 30.921875 
z
M 23.09375 0.390625 
C 10.796875 0.390625 10.796875 18.9375 10.796875 22.65625 
C 10.796875 29.90625 14.203125 40.390625 23.5 40.390625 
C 25.203125 40.390625 30.09375 40.390625 33.40625 33.4375 
C 35.203125 29.515625 35.203125 25.375 35.203125 20.34375 
C 35.203125 14.90625 35.203125 10.875 33.09375 6.84375 
C 30.90625 2.703125 27.703125 0.390625 23.09375 0.390625 
z
" id="CMR17-54"/>
       </defs>
       <use transform="scale(0.996264)" xlink:href="#CMR17-54"/>
       <use transform="translate(45.690477 0)scale(0.996264)" xlink:href="#CMR17-48"/>
      </g>
     </g>
    </g>
    <g id="text_20">
     <!-- current image index -->
     <g transform="translate(664.266065 339.484575)scale(0.1 -0.1)">
      <defs>
       <path d="M 29.203125 67.890625 
L 29.203125 65.296875 
C 35.09375 65.296875 36 64.703125 36 60.046875 
L 36 37.046875 
C 35.59375 37.546875 31.5 44 23.40625 44 
C 13.203125 44 3.296875 34.8125 3.296875 21.5 
C 3.296875 8.265625 12.59375 -1 22.40625 -1 
C 30.90625 -1 35.296875 5.640625 35.796875 6.34375 
L 35.796875 -1 
L 47.90625 -0.203125 
L 47.90625 2.40625 
C 42 2.40625 41.09375 3.015625 41.09375 7.859375 
L 41.09375 69 
z
M 35.796875 11.90625 
C 35.796875 8.875 34 6.140625 31.703125 4.125 
C 28.296875 1.09375 24.90625 0.59375 23 0.59375 
C 20.09375 0.59375 9.703125 2.109375 9.703125 21.390625 
C 9.703125 41.1875 21.296875 42.390625 23.90625 42.390625 
C 28.5 42.390625 32.203125 39.765625 34.5 36.140625 
C 35.796875 34.015625 35.796875 33.703125 35.796875 31.890625 
z
" id="CMR17-100"/>
      </defs>
      <use transform="scale(0.996264)" xlink:href="#CMR17-99"/>
      <use transform="translate(40.48566 0)scale(0.996264)" xlink:href="#CMR17-117"/>
      <use transform="translate(91.38103 0)scale(0.996264)" xlink:href="#CMR17-114"/>
      <use transform="translate(126.661798 0)scale(0.996264)" xlink:href="#CMR17-114"/>
      <use transform="translate(161.942566 0)scale(0.996264)" xlink:href="#CMR17-101"/>
      <use transform="translate(202.428226 0)scale(0.996264)" xlink:href="#CMR17-110"/>
      <use transform="translate(250.721142 0)scale(0.996264)" xlink:href="#CMR17-116"/>
      <use transform="translate(316.077876 0)scale(0.996264)" xlink:href="#CMR17-105"/>
      <use transform="translate(340.948935 0)scale(0.996264)" xlink:href="#CMR17-109"/>
      <use transform="translate(417.868525 0)scale(0.996264)" xlink:href="#CMR17-97"/>
      <use transform="translate(463.559002 0)scale(0.996264)" xlink:href="#CMR17-103"/>
      <use transform="translate(509.249479 0)scale(0.996264)" xlink:href="#CMR17-101"/>
      <use transform="translate(579.811106 0)scale(0.996264)" xlink:href="#CMR17-105"/>
      <use transform="translate(604.682164 0)scale(0.996264)" xlink:href="#CMR17-110"/>
      <use transform="translate(655.577534 0)scale(0.996264)" xlink:href="#CMR17-100"/>
      <use transform="translate(706.472904 0)scale(0.996264)" xlink:href="#CMR17-101"/>
      <use transform="translate(746.958564 0)scale(0.996264)" xlink:href="#CMR17-120"/>
     </g>
    </g>
   </g>
   <g id="matplotlib.axis_6">
    <g id="ytick_7">
     <g id="line2d_40">
      <g>
       <use style="stroke:#000000;stroke-width:0.8;" x="172.62" xlink:href="#m5fb4aa6650" y="309.852076"/>
      </g>
     </g>
     <g id="text_21">
      <!-- $\mathdefault{0}$ -->
      <g transform="translate(160.638665 313.311326)scale(0.1 -0.1)">
       <use transform="scale(0.996264)" xlink:href="#CMR17-48"/>
      </g>
     </g>
    </g>
    <g id="ytick_8">
     <g id="line2d_41">
      <g>
       <use style="stroke:#000000;stroke-width:0.8;" x="172.62" xlink:href="#m5fb4aa6650" y="286.105429"/>
      </g>
     </g>
     <g id="text_22">
      <!-- $\mathdefault{1}$ -->
      <g transform="translate(160.638665 289.564678)scale(0.1 -0.1)">
       <use transform="scale(0.996264)" xlink:href="#CMR17-49"/>
      </g>
     </g>
    </g>
    <g id="ytick_9">
     <g id="line2d_42">
      <g>
       <use style="stroke:#000000;stroke-width:0.8;" x="172.62" xlink:href="#m5fb4aa6650" y="262.358781"/>
      </g>
     </g>
     <g id="text_23">
      <!-- $\mathdefault{2}$ -->
      <g transform="translate(160.638665 265.81803)scale(0.1 -0.1)">
       <use transform="scale(0.996264)" xlink:href="#CMR17-50"/>
      </g>
     </g>
    </g>
    <g id="ytick_10">
     <g id="line2d_43">
      <g>
       <use style="stroke:#000000;stroke-width:0.8;" x="172.62" xlink:href="#m5fb4aa6650" y="238.612133"/>
      </g>
     </g>
     <g id="text_24">
      <!-- $\mathdefault{3}$ -->
      <g transform="translate(160.638665 242.071382)scale(0.1 -0.1)">
       <use transform="scale(0.996264)" xlink:href="#CMR17-51"/>
      </g>
     </g>
    </g>
    <g id="text_25">
     <!-- error in z [m] -->
     <g transform="translate(154.148005 296.441711)rotate(-90)scale(0.1 -0.1)">
      <defs>
       <path d="M 36.09375 40.6875 
C 36.90625 41.6875 36.90625 41.890625 36.90625 42.09375 
C 36.90625 43 36.5 43 34.703125 43 
L 4.296875 43 
L 3.296875 27.5 
L 5.09375 27.5 
C 5.796875 37.1875 6.90625 41.390625 18.40625 41.390625 
L 30.59375 41.390625 
L 2 1.5 
C 2 0.09375 2.09375 0 4.203125 0 
L 35.796875 0 
L 37.203125 18 
L 35.40625 18 
C 34.59375 6.890625 33.296875 1.796875 21.09375 1.796875 
L 8.296875 1.796875 
z
" id="CMR17-122"/>
      </defs>
      <use transform="scale(0.996264)" xlink:href="#CMR17-101"/>
      <use transform="translate(40.48566 0)scale(0.996264)" xlink:href="#CMR17-114"/>
      <use transform="translate(75.766428 0)scale(0.996264)" xlink:href="#CMR17-114"/>
      <use transform="translate(111.047196 0)scale(0.996264)" xlink:href="#CMR17-111"/>
      <use transform="translate(156.737673 0)scale(0.996264)" xlink:href="#CMR17-114"/>
      <use transform="translate(222.094407 0)scale(0.996264)" xlink:href="#CMR17-105"/>
      <use transform="translate(246.965466 0)scale(0.996264)" xlink:href="#CMR17-110"/>
      <use transform="translate(327.936802 0)scale(0.996264)" xlink:href="#CMR17-122"/>
      <use transform="translate(398.498429 0)scale(0.996264)" xlink:href="#CMR17-91"/>
      <use transform="translate(423.369487 0)scale(0.996264)" xlink:href="#CMR17-109"/>
      <use transform="translate(500.289077 0)scale(0.996264)" xlink:href="#CMR17-93"/>
     </g>
    </g>
   </g>
   <g id="line2d_44">
    <path clip-path="url(#pf42bf1d987)" d="M 221.267455 308.6112 
L 237.758117 308.31967 
L 254.24878 308.21281 
L 270.739442 307.218929 
L 287.230105 306.304375 
L 303.720767 306.206206 
L 320.21143 304.98513 
L 336.702092 305.919133 
L 353.192755 305.923122 
L 369.683418 306.718136 
L 386.17408 306.472168 
L 402.664743 306.413562 
L 419.155405 307.35438 
L 435.646068 306.714456 
L 452.13673 305.714365 
L 468.627393 305.470654 
L 485.118055 306.060734 
L 501.608718 305.260306 
L 518.099381 305.084011 
L 534.590043 305.944922 
L 551.080706 306.129837 
L 567.571368 305.78931 
L 584.062031 304.207427 
L 600.552693 300.984247 
L 617.043356 300.447216 
L 633.534018 300.330715 
L 650.024681 306.229858 
L 666.515344 304.753339 
L 683.006006 301.914023 
L 699.496669 301.234347 
L 715.987331 302.315959 
L 732.477994 302.974026 
L 748.968656 301.57428 
L 765.459319 301.904738 
L 781.949982 302.277632 
L 798.440644 303.543566 
L 814.931307 304.771576 
L 831.421969 302.799274 
L 847.912632 302.803003 
L 864.403294 303.112065 
L 880.893957 300.253349 
L 897.384619 300.313665 
L 913.875282 300.35914 
L 930.365945 286.674636 
L 946.856607 286.720182 
L 963.34727 276.733339 
L 979.837932 274.995085 
L 996.328595 274.490943 
L 1012.819257 261.464957 
L 1029.30992 261.517912 
L 1045.800582 261.554719 
L 1062.291245 261.592951 
L 1078.781908 261.653505 
L 1095.27257 261.706935 
L 1111.763233 261.752529 
L 1128.253895 261.790761 
L 1144.744558 256.660773 
L 1161.23522 257.830295 
L 1177.725883 263.365876 
L 1194.216545 263.426905 
" style="fill:none;stroke:#1f77b4;stroke-linecap:square;stroke-width:1.5;"/>
   </g>
   <g id="line2d_45">
    <path clip-path="url(#pf42bf1d987)" d="M 221.267455 307.709148 
L 237.758117 307.507261 
L 254.24878 308.214182 
L 270.739442 307.606168 
L 287.230105 306.837131 
L 303.720767 306.569767 
L 320.21143 306.022336 
L 336.702092 305.926684 
L 353.192755 305.643434 
L 369.683418 306.081014 
L 386.17408 306.647965 
L 402.664743 305.207303 
L 419.155405 305.733244 
L 435.646068 305.445743 
L 452.13673 306.002721 
L 468.627393 306.74706 
L 485.118055 307.480081 
L 501.608718 303.940372 
L 518.099381 301.822124 
L 534.590043 306.660907 
L 551.080706 306.771352 
L 567.571368 303.464299 
L 584.062031 300.209679 
L 600.552693 298.928072 
L 617.043356 299.859321 
L 633.534018 302.393444 
L 650.024681 303.483677 
L 666.515344 300.761693 
L 683.006006 302.359035 
L 699.496669 300.077529 
L 715.987331 299.168151 
L 732.477994 301.442177 
L 748.968656 302.01459 
L 765.459319 302.016917 
L 781.949982 301.105664 
L 798.440644 300.672311 
L 814.931307 299.500699 
L 831.421969 300.602353 
L 847.912632 300.136254 
L 864.403294 299.682954 
L 880.893957 300.536599 
L 897.384619 297.141659 
L 913.875282 297.991552 
L 930.365945 299.186887 
L 946.856607 298.273187 
L 963.34727 298.318757 
L 979.837932 298.364327 
L 996.328595 288.317833 
L 1012.819257 282.01958 
L 1029.30992 274.553872 
L 1045.800582 274.592341 
L 1062.291245 264.638459 
L 1078.781908 257.379821 
L 1095.27257 253.982388 
L 1111.763233 247.831057 
L 1128.253895 243.946343 
L 1144.744558 241.34276 
L 1161.23522 241.403789 
L 1177.725883 230.230041 
L 1194.216545 226.6272 
" style="fill:none;stroke:#ff7f0e;stroke-linecap:square;stroke-width:1.5;"/>
   </g>
   <g id="patch_15">
    <path d="M 172.62 312.7104 
L 172.62 222.528 
" style="fill:none;stroke:#000000;stroke-linecap:square;stroke-linejoin:miter;stroke-width:0.8;"/>
   </g>
   <g id="patch_16">
    <path d="M 1242.864 312.7104 
L 1242.864 222.528 
" style="fill:none;stroke:#000000;stroke-linecap:square;stroke-linejoin:miter;stroke-width:0.8;"/>
   </g>
   <g id="patch_17">
    <path d="M 172.62 312.7104 
L 1242.864 312.7104 
" style="fill:none;stroke:#000000;stroke-linecap:square;stroke-linejoin:miter;stroke-width:0.8;"/>
   </g>
   <g id="patch_18">
    <path d="M 172.62 222.528 
L 1242.864 222.528 
" style="fill:none;stroke:#000000;stroke-linecap:square;stroke-linejoin:miter;stroke-width:0.8;"/>
   </g>
   <g id="legend_3">
    <g id="patch_19">
     <path d="M 179.62 259.741741 
L 297.326494 259.741741 
Q 299.326494 259.741741 299.326494 257.741741 
L 299.326494 229.528 
Q 299.326494 227.528 297.326494 227.528 
L 179.62 227.528 
Q 177.62 227.528 177.62 229.528 
L 177.62 257.741741 
Q 177.62 259.741741 179.62 259.741741 
z
" style="fill:#ffffff;opacity:0.8;stroke:#cccccc;stroke-linejoin:miter;"/>
    </g>
    <g id="line2d_46">
     <path d="M 181.62 235.626437 
L 201.62 235.626437 
" style="fill:none;stroke:#1f77b4;stroke-linecap:square;stroke-width:1.5;"/>
    </g>
    <g id="line2d_47"/>
    <g id="text_26">
     <!-- single scale features -->
     <g transform="translate(209.62 239.126437)scale(0.1 -0.1)">
      <use transform="scale(0.996264)" xlink:href="#CMR17-115"/>
      <use transform="translate(35.801338 0)scale(0.996264)" xlink:href="#CMR17-105"/>
      <use transform="translate(60.672396 0)scale(0.996264)" xlink:href="#CMR17-110"/>
      <use transform="translate(111.567766 0)scale(0.996264)" xlink:href="#CMR17-103"/>
      <use transform="translate(157.258243 0)scale(0.996264)" xlink:href="#CMR17-108"/>
      <use transform="translate(182.129301 0)scale(0.996264)" xlink:href="#CMR17-101"/>
      <use transform="translate(252.690928 0)scale(0.996264)" xlink:href="#CMR17-115"/>
      <use transform="translate(288.492266 0)scale(0.996264)" xlink:href="#CMR17-99"/>
      <use transform="translate(328.977926 0)scale(0.996264)" xlink:href="#CMR17-97"/>
      <use transform="translate(374.668404 0)scale(0.996264)" xlink:href="#CMR17-108"/>
      <use transform="translate(399.539462 0)scale(0.996264)" xlink:href="#CMR17-101"/>
      <use transform="translate(470.101089 0)scale(0.996264)" xlink:href="#CMR17-102"/>
      <use transform="translate(497.574601 0)scale(0.996264)" xlink:href="#CMR17-101"/>
      <use transform="translate(538.060262 0)scale(0.996264)" xlink:href="#CMR17-97"/>
      <use transform="translate(583.750739 0)scale(0.996264)" xlink:href="#CMR17-116"/>
      <use transform="translate(619.031507 0)scale(0.996264)" xlink:href="#CMR17-117"/>
      <use transform="translate(669.926876 0)scale(0.996264)" xlink:href="#CMR17-114"/>
      <use transform="translate(705.207644 0)scale(0.996264)" xlink:href="#CMR17-101"/>
      <use transform="translate(745.693305 0)scale(0.996264)" xlink:href="#CMR17-115"/>
     </g>
    </g>
    <g id="line2d_48">
     <path d="M 181.62 250.304562 
L 201.62 250.304562 
" style="fill:none;stroke:#ff7f0e;stroke-linecap:square;stroke-width:1.5;"/>
    </g>
    <g id="line2d_49"/>
    <g id="text_27">
     <!-- multi scale features -->
     <g transform="translate(209.62 253.804562)scale(0.1 -0.1)">
      <use transform="scale(0.996264)" xlink:href="#CMR17-109"/>
      <use transform="translate(74.317136 0)scale(0.996264)" xlink:href="#CMR17-117"/>
      <use transform="translate(125.212506 0)scale(0.996264)" xlink:href="#CMR17-108"/>
      <use transform="translate(150.083564 0)scale(0.996264)" xlink:href="#CMR17-116"/>
      <use transform="translate(185.364332 0)scale(0.996264)" xlink:href="#CMR17-105"/>
      <use transform="translate(240.311357 0)scale(0.996264)" xlink:href="#CMR17-115"/>
      <use transform="translate(276.112694 0)scale(0.996264)" xlink:href="#CMR17-99"/>
      <use transform="translate(316.598355 0)scale(0.996264)" xlink:href="#CMR17-97"/>
      <use transform="translate(362.288832 0)scale(0.996264)" xlink:href="#CMR17-108"/>
      <use transform="translate(387.159891 0)scale(0.996264)" xlink:href="#CMR17-101"/>
      <use transform="translate(457.721517 0)scale(0.996264)" xlink:href="#CMR17-102"/>
      <use transform="translate(485.19503 0)scale(0.996264)" xlink:href="#CMR17-101"/>
      <use transform="translate(525.68069 0)scale(0.996264)" xlink:href="#CMR17-97"/>
      <use transform="translate(571.371167 0)scale(0.996264)" xlink:href="#CMR17-116"/>
      <use transform="translate(606.651935 0)scale(0.996264)" xlink:href="#CMR17-117"/>
      <use transform="translate(657.547305 0)scale(0.996264)" xlink:href="#CMR17-114"/>
      <use transform="translate(692.828073 0)scale(0.996264)" xlink:href="#CMR17-101"/>
      <use transform="translate(733.313733 0)scale(0.996264)" xlink:href="#CMR17-115"/>
     </g>
    </g>
   </g>
  </g>
 </g>
 <defs>
  <clipPath id="p8a1a9fe2aa">
   <rect height="90.1824" width="1070.244" x="172.62" y="42.1632"/>
  </clipPath>
  <clipPath id="pd3a5326775">
   <rect height="90.1824" width="1070.244" x="172.62" y="132.3456"/>
  </clipPath>
  <clipPath id="pf42bf1d987">
   <rect height="90.1824" width="1070.244" x="172.62" y="222.528"/>
  </clipPath>
 </defs>
</svg>
